<?xml version="1.0" encoding="iso-8859-1"?>
<!-- Uploaded to: SVG Repo, www.svgrepo.com, Generator: SVG Repo Mixer Tools -->
<svg fill="#000000" height="800px" width="800px" version="1.1" id="Capa_1" xmlns="http://www.w3.org/2000/svg" xmlns:xlink="http://www.w3.org/1999/xlink" 
	 viewBox="0 0 512.001 512.001" xml:space="preserve">
<g>
	<g>
		<path d="M413.906,65.669C371.559,23.322,315.481,0,256,0c-32.044,0-63.034,6.719-92.108,19.971
			c-3.821,1.742-5.507,6.251-3.766,10.073c1.742,3.822,6.251,5.507,10.073,3.766C197.281,21.466,226.148,15.208,256,15.208
			c114.893,0,208.366,93.472,208.366,208.367v80.079h-17.584v-5.477c0-17.504-14.24-31.744-31.744-31.744h-35.026
			c-4.199,0-7.604,3.404-7.604,7.604v16.79h-10.8c-11.445,0-20.758,9.312-20.758,20.758v98.398c0,11.445,9.312,20.758,20.758,20.758
			h10.8v16.789c0,4.2,3.405,7.604,7.604,7.604h35.026c17.139,0,31.14-13.656,31.716-30.656h25.216c4.199,0,7.604-3.404,7.604-7.604
			v-99.686v-5.929v-87.683C479.574,164.094,456.253,108.015,413.906,65.669z M372.408,415.53h-10.8v0.001
			c-3.06,0-5.55-2.489-5.55-5.55v-98.398c0-3.061,2.49-5.55,5.55-5.55h10.8V415.53z M431.574,423.388
			c0,9.118-7.417,16.536-16.536,16.536h-27.422v-16.789V298.43v-16.79h27.422c9.118,0,16.536,7.417,16.536,16.536V423.388z
			 M464.366,409.266h-16.632v-90.405h16.632V409.266z"/>
	</g>
</g>
<g>
	<g>
		<path d="M279.304,454.214h-47.993c-13.301,0-24.524,9.036-27.871,21.291H80.248c-17.983,0-32.613-14.63-32.613-32.613v-18.418
			h16.66c0.576,17,14.577,30.656,31.716,30.656h35.026c4.199,0,7.604-3.404,7.604-7.604v-16.788h10.8
			c11.445,0,20.758-9.312,20.758-20.758v-98.398c0-11.445-9.312-20.758-20.758-20.758h-10.8v-16.79c0-4.2-3.405-7.604-7.604-7.604
			H96.01c-17.503,0-31.744,14.24-31.744,31.744v5.477H47.635v-80.079c0-60.149,26.255-117.46,72.031-157.238
			c3.169-2.755,3.506-7.557,0.752-10.727c-2.754-3.17-7.557-3.508-10.728-0.752c-49.101,42.668-77.263,104.164-77.263,168.72v87.683
			v5.929v72.31v27.374v26.022c0,26.369,21.452,47.821,47.821,47.821h123.193c3.348,12.253,14.57,21.287,27.87,21.287h47.993
			c15.932,0,28.893-12.961,28.893-28.893S295.236,454.214,279.304,454.214z M138.641,306.035h10.8v-0.001
			c3.06,0,5.55,2.489,5.55,5.55v98.398c0,3.061-2.49,5.55-5.55,5.55h-10.8V306.035z M79.474,416.87V311.258v-13.081h0.001
			c0-9.118,7.417-16.536,16.536-16.536h27.422v16.79v124.705v16.789H96.01c-9.118,0-16.536-7.417-16.536-16.536V416.87z
			 M47.635,389.496v-70.635h16.632v90.405H47.635V389.496z M279.304,496.792h-47.993c-7.546,0-13.685-6.14-13.685-13.685
			c0-7.545,6.139-13.685,13.685-13.685h47.993c7.546,0,13.685,6.14,13.685,13.685S286.85,496.792,279.304,496.792z"/>
	</g>
</g>
</svg>