<svg width="29" height="20" viewBox="0 0 29 20" fill="none" xmlns="http://www.w3.org/2000/svg">
<path fill-rule="evenodd" clip-rule="evenodd" d="M27.4574 2.53544C26.7324 1.13025 25.8004 0.327283 24.7992 0.217787C15.4095 -0.712926 3.43064 1.49524 0.979642 3.88589C-0.090514 4.9261 -0.28038 7.3715 0.392782 11.3681C0.858818 14.1602 1.58376 16.6604 1.60102 16.7699L1.75637 17.3174L4.74245 16.9706C4.9841 18.6861 6.3822 20 8.07374 20C9.92062 20 11.4396 18.4123 11.4396 16.4414C11.4396 16.3501 11.4396 16.2771 11.4223 16.1859L18.4991 15.3282C18.4991 15.3464 18.4991 15.3829 18.4991 15.4012C18.4991 17.3539 20.0008 18.9598 21.8649 18.9598C23.7118 18.9598 25.2308 17.3721 25.2308 15.4012C25.2308 15.1092 25.1962 14.8172 25.1272 14.5435L28.1478 14.1785L28.3031 13.8317C29.5114 11.2039 29.0971 5.71082 27.4574 2.53544ZM8.07374 18.5948C6.9518 18.5948 6.03699 17.6276 6.03699 16.4414C6.03699 15.2552 6.9518 14.288 8.07374 14.288C9.19568 14.288 10.1105 15.2552 10.1105 16.4414C10.1105 17.6276 9.19568 18.5948 8.07374 18.5948ZM21.8477 17.5728C20.7257 17.5728 19.8109 16.6056 19.8109 15.4194C19.8109 14.2332 20.7257 13.266 21.8477 13.266C22.9696 13.266 23.8844 14.2332 23.8844 15.4194C23.8844 16.6056 22.9696 17.5728 21.8477 17.5728ZM27.233 12.8828L24.4886 13.2113C24.2814 12.9193 24.0225 12.682 23.7464 12.4813C23.2113 12.0798 22.5554 11.8608 21.8477 11.8608C20.8121 11.8608 19.8627 12.3718 19.2586 13.1565C19.0687 13.3755 18.8961 13.631 18.7235 13.9047L11.0598 14.8172C10.9908 14.6712 10.9045 14.5252 10.8182 14.3975C10.8009 14.3792 10.8009 14.361 10.7837 14.3427C10.1623 13.4668 9.17842 12.8828 8.07374 12.8828C7.21071 12.8828 6.43399 13.2295 5.84713 13.777C5.34657 14.215 4.96684 14.8172 4.74245 15.5472L2.7057 15.7844C1.61828 11.7878 0.686212 6.0758 1.87719 4.90785C3.51695 3.30191 11.9229 1.38574 20.1389 1.38574C21.6751 1.38574 23.194 1.45874 24.6612 1.60473C25.2135 1.67773 25.8004 2.24346 26.3009 3.21067C27.6472 5.82031 28.0788 10.5286 27.233 12.8828ZM4.89779 7.60874C4.82875 7.554 4.72519 7.49925 4.5871 7.4445C4.44902 7.38975 4.29367 7.3715 4.12107 7.3715C3.91394 7.3715 3.74134 7.408 3.58599 7.46275C3.44791 7.53575 3.32708 7.60874 3.22352 7.71824V10.6016H2.08432V6.33129L3.22352 6.2583V6.67803L3.58599 6.44079C3.70681 6.36779 3.82764 6.31304 3.98298 6.2583C4.13833 6.20355 4.25915 6.1853 4.39724 6.1853C4.53532 6.1853 4.63889 6.1853 4.70793 6.20355C4.79423 6.2218 4.84601 6.24005 4.89779 6.2583V7.60874ZM8.14278 8.08322C8.091 7.75474 7.97018 7.5175 7.79757 7.35325C7.62497 7.18901 7.41784 7.11601 7.15893 7.11601C6.8655 7.11601 6.64111 7.20726 6.48577 7.38975C6.33042 7.57224 6.24412 7.80949 6.2096 8.10147H8.14278V8.08322ZM9.21294 8.64895H6.22686C6.2959 8.99569 6.41673 9.25118 6.60659 9.39717C6.79646 9.54317 7.03811 9.63441 7.31428 9.63441C7.53866 9.63441 7.78031 9.59791 8.05648 9.52492C8.33265 9.45192 8.53978 9.36067 8.69512 9.25118V10.3279C8.53978 10.4374 8.33265 10.5286 8.02196 10.5834C7.72853 10.6381 7.48688 10.6746 7.31428 10.6746C6.60659 10.6746 6.03699 10.4739 5.64 10.0541C5.24301 9.63441 5.03588 9.08693 5.03588 8.39346C5.03588 7.69999 5.24301 7.13426 5.65726 6.71453C6.07151 6.2948 6.57207 6.0758 7.19345 6.0758C7.81483 6.0758 8.29813 6.31304 8.6606 6.76928C9.02307 7.22551 9.21294 7.86423 9.21294 8.64895ZM12.4752 9.28768V7.408C12.4061 7.31675 12.3026 7.24376 12.1645 7.18901C12.0264 7.13426 11.8711 7.09776 11.6985 7.09776C11.3878 7.09776 11.1461 7.18901 11.008 7.38975C10.8527 7.59049 10.7837 7.90073 10.7837 8.32046C10.7837 8.75845 10.87 9.06869 11.0253 9.28768C11.1806 9.50667 11.405 9.59791 11.6812 9.59791C11.8538 9.59791 12.0092 9.56141 12.1472 9.50667C12.2853 9.45192 12.3889 9.37892 12.4752 9.28768ZM13.5971 10.6016H12.7341L12.4925 10.2001L11.8883 10.5469C11.8365 10.5834 11.7675 10.6016 11.6639 10.6199C11.5604 10.6381 11.4913 10.6381 11.4223 10.6381C10.8354 10.6381 10.3867 10.4374 10.076 9.9994C9.76528 9.57966 9.60993 9.05044 9.60993 8.41171C9.60993 7.71824 9.7998 7.17076 10.1623 6.76928C10.542 6.36779 11.0253 6.16705 11.6294 6.16705C11.802 6.16705 11.9574 6.1853 12.0955 6.20355C12.2335 6.24005 12.3544 6.27655 12.4752 6.36779V4.48812H13.5971V10.6016ZM17.4635 8.6672C17.4635 8.35696 17.3772 8.11972 17.2219 7.97373C17.0665 7.82773 16.8421 7.75474 16.5832 7.75474H15.7892V9.57967H16.6868C16.9457 9.57967 17.1528 9.50667 17.2736 9.34242C17.3945 9.19643 17.4635 8.95919 17.4635 8.6672ZM17.2564 6.34954C17.2564 6.1123 17.1873 5.91156 17.0492 5.76557C16.9112 5.61957 16.7213 5.54658 16.4796 5.54658H15.7892V7.18901H16.5487C16.7731 7.18901 16.9457 7.11601 17.0665 6.97002C17.2046 6.80578 17.2564 6.60503 17.2564 6.34954ZM18.7408 8.83144C18.7408 9.36067 18.5854 9.79866 18.2575 10.1089C17.9295 10.4374 17.5153 10.5834 17.0147 10.5834H14.5465V4.50637H16.9629C17.4117 4.50637 17.7914 4.63411 18.0676 4.90785C18.361 5.18159 18.4991 5.54658 18.4991 6.02106C18.4991 6.40429 18.4128 6.69628 18.2402 6.93352C18.0676 7.17076 17.8087 7.29851 17.4635 7.35325C17.8087 7.408 18.1021 7.57225 18.361 7.82773C18.62 8.08322 18.7408 8.41171 18.7408 8.83144ZM23.2285 10.6016H22.0893V10.1271L21.606 10.4191C21.468 10.4921 21.3299 10.5651 21.1918 10.6016C21.0537 10.6381 20.8811 10.6746 20.7257 10.6746C20.3288 10.6746 20.0181 10.5469 19.7764 10.2914C19.552 10.0359 19.4312 9.68916 19.4312 9.25118V6.34954H20.5704V8.97744C20.5704 9.14168 20.6222 9.26943 20.7257 9.39717C20.8293 9.52492 21.0019 9.57967 21.209 9.57967C21.4162 9.57967 21.5888 9.54317 21.7269 9.45192C21.8822 9.36067 21.9858 9.28768 22.0548 9.19643V6.33129H23.194V10.6016H23.2285ZM27.1985 9.14168C27.1985 9.59791 27.0431 9.98115 26.7324 10.2731C26.4217 10.5469 26.0247 10.6929 25.5587 10.6929C25.3343 10.6929 25.0754 10.6746 24.782 10.6199C24.4713 10.5651 24.2124 10.4739 23.9707 10.3461V9.26943C24.1606 9.37892 24.3677 9.47017 24.6094 9.56142C24.851 9.63441 25.1099 9.68916 25.4379 9.68916C25.6623 9.68916 25.8349 9.65266 25.973 9.59791C26.1111 9.52492 26.1801 9.41542 26.1801 9.23293C26.1801 9.12343 26.1283 9.01394 26.0075 8.94094C25.8867 8.86794 25.6968 8.8132 25.4034 8.79495C24.8855 8.75845 24.5403 8.61245 24.3332 8.39346C24.1261 8.17447 24.0225 7.88248 24.0225 7.5175C24.0225 7.09776 24.1779 6.76928 24.4886 6.49554C24.7992 6.2218 25.1962 6.09405 25.645 6.09405C25.8521 6.09405 26.0593 6.1123 26.2837 6.1488C26.508 6.1853 26.6979 6.2218 26.8705 6.2948V7.38975C26.6634 7.29851 26.4735 7.22551 26.2837 7.18901C26.0938 7.15251 25.8694 7.11601 25.645 7.11601C25.4551 7.11601 25.3171 7.15251 25.2135 7.20726C25.1099 7.28026 25.0582 7.35325 25.0582 7.42625C25.0582 7.59049 25.1272 7.69999 25.2825 7.73649C25.4206 7.79124 25.576 7.82773 25.7486 7.82773C26.2319 7.86423 26.6116 7.99198 26.8533 8.21097C27.0776 8.44821 27.1985 8.75845 27.1985 9.14168Z" fill="#D84E55"/>
</svg>
