<svg width="73" height="38" viewBox="0 0 73 38" fill="none" xmlns="http://www.w3.org/2000/svg">
<path d="M2.46174 13.7142C4.60435 12.563 7.0255 11.4758 8.61104 9.73828C8.64211 9.67715 8.6583 9.6096 8.6583 9.54109C8.6583 9.47258 8.64211 9.40503 8.61104 9.34389C7.90397 8.42719 6.55413 8.19268 5.39712 7.75565C6.45699 7.76266 7.50522 7.97632 8.48248 8.38455C12.0178 10.7616 4.13298 13.3305 2.39746 13.7142H2.46174Z" fill="white"/>
<path d="M20.0417 34.0524C19.9774 33.9458 20.4382 33.6153 20.9634 33.6367C21.4885 33.658 21.7994 33.9671 21.7243 34.063C21.453 34.077 21.1811 34.077 20.9098 34.063L20.0417 34.0524Z" fill="#E2E1E1"/>
<path d="M25.2272 36.8238C25.2379 36.7974 25.2539 36.7734 25.2742 36.7533C25.2944 36.7332 25.3185 36.7173 25.345 36.7065C25.4386 36.6606 25.5409 36.6352 25.6451 36.6319C25.8334 36.6148 26.0231 36.6366 26.2025 36.6959C26.2916 36.733 26.364 36.8013 26.4061 36.8878C26.4641 36.9051 26.5137 36.943 26.5454 36.9944C26.5576 37.03 26.5568 37.0688 26.5431 37.1039C26.5294 37.139 26.5036 37.1681 26.4704 37.1862C26.2898 37.271 26.0912 37.3112 25.8917 37.3035H25.4522C25.4522 37.3035 25.3665 37.1969 25.345 37.1756C25.3236 37.1542 25.2164 37.0477 25.2164 36.9624C25.2143 36.9159 25.2179 36.8694 25.2272 36.8238Z" fill="#E2E1E1"/>
<path d="M6.5752 28.8396C6.56054 28.8312 6.54391 28.8267 6.52697 28.8267C6.51004 28.8267 6.49341 28.8312 6.47874 28.8396C6.46542 28.833 6.45075 28.8296 6.43587 28.8296C6.421 28.8296 6.40633 28.833 6.393 28.8396C6.393 28.8396 6.28582 28.8396 6.2751 28.8396C6.26439 28.8396 6.27511 28.8929 6.33942 28.9035C6.3296 28.9135 6.32409 28.9269 6.32409 28.9408C6.32409 28.9548 6.3296 28.9682 6.33942 28.9781H6.47874V29.0421C6.49178 29.0496 6.50657 29.0535 6.52162 29.0535C6.53667 29.0535 6.55145 29.0496 6.56449 29.0421H6.61807C6.62976 29.0478 6.64259 29.0507 6.65559 29.0507C6.66859 29.0507 6.68141 29.0478 6.6931 29.0421C6.6978 29.034 6.70028 29.0248 6.70028 29.0155C6.70028 29.0061 6.6978 28.9969 6.6931 28.9888L6.5752 28.8396Z" fill="#E2E1E1"/>
<path d="M20.0848 30.6094C20.0318 30.5985 19.9771 30.5985 19.9241 30.6094H19.8169C19.7435 30.5872 19.6652 30.5872 19.5918 30.6094C19.5918 30.6627 19.5918 30.716 19.5918 30.7586C19.6641 30.7978 19.7452 30.8183 19.8276 30.8183C19.91 30.8183 19.991 30.7978 20.0634 30.7586C20.0681 30.7486 20.0706 30.7377 20.0706 30.7267C20.0706 30.7156 20.0681 30.7047 20.0634 30.6947C20.0779 30.6686 20.0853 30.6392 20.0848 30.6094Z" fill="#E2E1E1"/>
<path d="M16.6029 24.2774H16.4421H16.3349C16.2551 24.2757 16.1767 24.298 16.1099 24.3413C16.1099 24.3413 16.1099 24.4479 16.1099 24.4799C16.183 24.5165 16.2638 24.5355 16.3457 24.5355C16.4275 24.5355 16.5083 24.5165 16.5814 24.4799C16.5814 24.4799 16.5814 24.4799 16.5814 24.4053C16.5973 24.3884 16.6077 24.3673 16.6116 24.3445C16.6154 24.3218 16.6123 24.2984 16.6029 24.2774Z" fill="#E2E1E1"/>
<path d="M1.20905 29.373C1.20905 29.373 1.20905 29.2878 1.13403 29.2451C1.06446 29.2041 0.98833 29.1753 0.908957 29.1598C0.820389 29.1436 0.729586 29.1436 0.641017 29.1598C0.542763 29.1709 0.451619 29.2162 0.383789 29.2878C0.383789 29.3624 0.383791 29.4476 0.469532 29.5009C0.565918 29.5494 0.672324 29.575 0.780343 29.5756C0.876523 29.5859 0.973535 29.5859 1.06971 29.5756C1.06971 29.5756 1.06971 29.5756 1.14474 29.5116C1.17032 29.4999 1.19087 29.4796 1.20266 29.4541C1.21446 29.4287 1.21672 29.4 1.20905 29.373Z" fill="#E2E1E1"/>
<path d="M28.8274 32.4639C28.6034 32.3527 28.3592 32.2874 28.1093 32.2721C27.9845 32.2612 27.8589 32.2612 27.7341 32.2721C27.609 32.2768 27.4872 32.3135 27.3805 32.3787C27.3583 32.3947 27.34 32.4154 27.327 32.4394C27.314 32.4634 27.3067 32.49 27.3054 32.5172C27.3054 32.5172 27.2197 32.6025 27.2304 32.6558C27.2411 32.7091 27.2304 32.7624 27.3054 32.7944L27.5841 32.8903H27.6591H27.7877H27.9056C28.1936 32.9233 28.4853 32.898 28.763 32.8157C28.8917 32.8157 29.0095 32.7304 29.0417 32.6345C29.0739 32.5385 28.9774 32.5279 28.8274 32.4639Z" fill="#E2E1E1"/>
<path d="M60.4843 37.4738C60.4186 37.4221 60.3426 37.3848 60.2613 37.3646C60.1799 37.3444 60.0952 37.3417 60.0128 37.3566H59.7877C59.7078 37.3729 59.6291 37.3943 59.5519 37.4205H59.434L59.3268 37.4845C59.1982 37.5591 59.1339 37.6977 59.3268 37.783C59.3763 37.7936 59.4274 37.7936 59.4769 37.783H59.5519C59.6265 37.7936 59.7023 37.7936 59.777 37.783H59.9485C60.1524 37.729 60.3449 37.6387 60.5165 37.5165C60.5165 37.5165 60.5272 37.5698 60.4843 37.4738Z" fill="#E2E1E1"/>
<path d="M1.40131 31.0359C1.04408 30.8626 0.633685 30.8321 0.254521 30.9506C0.147344 30.9506 0.0401634 31.0039 0.00801037 31.0785C-0.0241427 31.1531 0.0508821 31.1744 0.0508821 31.1744C0.045871 31.1862 0.0432857 31.1989 0.0432857 31.2117C0.0432857 31.2246 0.045871 31.2372 0.0508821 31.2491C0.0937426 31.3015 0.155044 31.3358 0.222369 31.345C0.353672 31.3665 0.487615 31.3665 0.618918 31.345C0.875391 31.328 1.12632 31.2629 1.35844 31.1531C1.4549 31.1744 1.47634 31.0892 1.40131 31.0359Z" fill="#E2E1E1"/>
<path d="M11.482 34.3719C11.3635 34.2966 11.226 34.256 11.0854 34.2546C10.9447 34.2489 10.8047 34.2782 10.6782 34.3399C10.6138 34.3399 10.5388 34.3399 10.5281 34.4252C10.5174 34.5104 10.5281 34.5424 10.646 34.5531C10.9173 34.6174 11.2 34.6174 11.4713 34.5531C11.5249 34.5531 11.557 34.5531 11.557 34.4678C11.557 34.3825 11.5141 34.3719 11.482 34.3719Z" fill="#E2E1E1"/>
<path d="M27.8409 28.0514C27.6674 27.9515 27.4754 27.8877 27.2764 27.8639C27.0774 27.8401 26.8757 27.8567 26.6833 27.9128C26.5762 27.9128 26.5869 28.0407 26.6833 28.094H26.7584C26.7584 28.1473 26.7584 28.2219 26.8763 28.2326C27.2081 28.2659 27.5432 28.2332 27.8623 28.1367C27.9052 28.19 27.9052 28.094 27.8409 28.0514Z" fill="#E2E1E1"/>
<path d="M38.3305 34.6705C38.0881 34.5774 37.8293 34.5339 37.5695 34.5426C37.2814 34.475 36.9867 34.4393 36.6907 34.436C36.3799 34.436 36.1977 34.6705 36.2727 34.8624C36.3477 35.0543 36.6371 35.1715 36.9158 35.2461H37.1087C37.2639 35.3029 37.4261 35.3388 37.591 35.3527C37.8764 35.3853 38.1636 35.3091 38.3948 35.1396C38.4253 35.1061 38.448 35.0665 38.4614 35.0234C38.4748 34.9803 38.4786 34.9348 38.4725 34.8901C38.4664 34.8455 38.4505 34.8026 38.4259 34.7647C38.4014 34.7268 38.3688 34.6946 38.3305 34.6705Z" fill="#E2E1E1"/>
<path d="M7.4866 31.601H7.37942H7.26153H7.0043C6.96471 31.6097 6.9279 31.628 6.89713 31.6543C6.88809 31.6784 6.88809 31.7049 6.89713 31.7289C6.89123 31.7424 6.88818 31.7569 6.88818 31.7716C6.88818 31.7862 6.89123 31.8007 6.89713 31.8142C6.98837 31.8666 7.09187 31.8942 7.19722 31.8942C7.30258 31.8942 7.40607 31.8666 7.49731 31.8142C7.49731 31.8142 7.49731 31.8142 7.49731 31.7396C7.50782 31.7309 7.51607 31.7198 7.52139 31.7073C7.52671 31.6947 7.52894 31.6811 7.5279 31.6675C7.52685 31.654 7.52255 31.6409 7.51537 31.6293C7.50818 31.6177 7.49832 31.608 7.4866 31.601Z" fill="#E2E1E1"/>
<path d="M15.5325 32.1233C15.5008 32.0719 15.4512 32.034 15.3931 32.0167C15.351 31.9302 15.2786 31.8619 15.1895 31.8248C15.0101 31.7655 14.8204 31.7437 14.6322 31.7608C14.4253 31.745 14.2175 31.745 14.0106 31.7608C13.8306 31.7654 13.6572 31.8291 13.5175 31.942C13.4211 32.0593 13.5175 32.1872 13.6997 32.2618C13.8841 32.3198 14.0748 32.3556 14.2678 32.3684C14.4713 32.3791 14.6752 32.3791 14.8787 32.3684C15.0783 32.3761 15.2768 32.3359 15.4574 32.2512C15.4794 32.2374 15.4977 32.2186 15.5107 32.1964C15.5238 32.1741 15.5312 32.149 15.5325 32.1233Z" fill="#E2E1E1"/>
<path d="M1.70151 25.2582C1.64848 25.2472 1.59377 25.2472 1.54074 25.2582H1.43357C1.35483 25.2526 1.27627 25.2712 1.2085 25.3115C1.2085 25.3115 1.2085 25.418 1.2085 25.45C1.28166 25.4866 1.36241 25.5056 1.44429 25.5056C1.52617 25.5056 1.6069 25.4866 1.68007 25.45C1.68007 25.45 1.68007 25.45 1.68007 25.3754C1.69155 25.3584 1.69938 25.3392 1.70307 25.319C1.70676 25.2988 1.70623 25.2781 1.70151 25.2582Z" fill="#E2E1E1"/>
<path d="M37.4076 32.5813C37.3545 32.5704 37.2998 32.5704 37.2468 32.5813H37.1396C37.0663 32.5591 36.9879 32.5591 36.9146 32.5813C36.9146 32.6346 36.9146 32.6879 36.9146 32.7199C36.9877 32.7565 37.0685 32.7755 37.1503 32.7755C37.2322 32.7755 37.313 32.7565 37.3861 32.7199C37.3861 32.7199 37.3861 32.7199 37.3861 32.6453C37.3963 32.6251 37.4036 32.6036 37.4076 32.5813Z" fill="#E2E1E1"/>
<path d="M6.17982 23.5312C6.15889 23.5247 6.13644 23.5247 6.11551 23.5312C5.93409 23.4747 5.73962 23.4747 5.55819 23.5312C5.55819 23.5312 5.48317 23.5312 5.48317 23.5952C5.47564 23.6081 5.47168 23.6228 5.47168 23.6378C5.47168 23.6528 5.47564 23.6675 5.48317 23.6804L5.59034 23.7551H5.72968H5.97618L6.10479 23.7018C6.10479 23.7018 6.1691 23.7018 6.17982 23.6058V23.5312Z" fill="#E2E1E1"/>
<path d="M1.2519 29.0422C1.09121 29.0422 0.898369 29.1381 1.92682 29.2874C7.4869 30.0868 22.4423 31.9202 28.1417 32.5811C33.9794 33.2529 39.8592 33.4916 45.7325 33.2953C51.4426 33.1994 68.5407 31.9842 71.1332 31.6751C73.7258 31.366 68.5621 30.2574 61.7271 29.9909C54.8922 29.7244 24.8206 27.5819 24.8206 27.5819C24.8206 27.5819 2.19465 28.9676 1.2519 29.0422Z" fill="#E2E1E1"/>
<path d="M7.28245 22.4337L12.9818 25.0345L25.6125 26.4842L35.1364 26.7933L49.9311 25.8447L45.4317 14.8442L9.14652 16.4218C8.28648 17.1055 7.6399 18.0187 7.28245 19.0547C7.09205 20.173 7.09205 21.3153 7.28245 22.4337Z" fill="#151717"/>
<path d="M35.8331 25.5037C35.8974 29.2558 34.6118 32.3257 32.9513 32.347C31.2908 32.3683 29.8874 29.3624 29.8231 25.5996C29.7588 21.8369 31.0551 18.7777 32.7156 18.7457C34.3761 18.7137 35.7688 21.7409 35.8331 25.5037Z" fill="#1A1A1A"/>
<path d="M32.7153 18.7454L28.9336 18.82L29.105 32.5813L32.951 32.3467L32.7153 18.7454Z" fill="#1A1A1A"/>
<path d="M25.8583 25.749C25.8583 25.9941 25.8583 26.25 25.8583 26.4845V26.719C25.9276 28.327 26.3831 29.895 27.1867 31.2918C27.3593 31.6494 27.6213 31.9569 27.9478 32.1846C28.2742 32.4124 28.6541 32.5527 29.0508 32.5923C29.8114 32.5923 30.497 31.9634 31.022 30.9614C31.6475 29.6237 31.9902 28.1725 32.029 26.6976C32.029 26.3565 32.029 26.0048 32.029 25.6317C32.0537 23.7788 31.6195 21.9484 30.7649 20.302C30.5437 19.9244 30.2655 19.5829 29.94 19.2894C29.6498 19.015 29.2687 18.8558 28.8687 18.8417H28.7937C27.1438 18.8417 25.7619 21.9542 25.8583 25.749Z" fill="#1A1A1A"/>
<path d="M31.1194 25.6634C31.1194 28.5734 30.1767 30.993 28.9018 30.993C27.627 30.993 26.5664 28.68 26.5128 25.77C26.4592 22.8599 27.4556 20.4403 28.7197 20.4403C29.9838 20.4403 31.0337 22.7534 31.1194 25.6634Z" fill="#F0F1F7"/>
<path d="M29.7808 25.685C29.7808 26.5271 29.5128 27.2199 29.1484 27.2199C28.784 27.2199 28.4732 26.5484 28.4518 25.7063C28.4303 24.8642 28.7304 24.182 29.0948 24.1714C29.4592 24.1607 29.77 24.8429 29.7808 25.685Z" fill="#A6B2C5"/>
<path d="M29.6944 25.685C29.6944 26.0901 29.5551 26.4205 29.3836 26.4205C29.2121 26.4205 29.0621 26.1007 29.0514 25.6957C29.0406 25.2906 29.18 24.9709 29.3622 24.9709C29.5444 24.9709 29.6837 25.2906 29.6944 25.685Z" fill="#F0F1F7"/>
<path d="M14.1392 23.0622C14.1392 25.8976 13.3036 28.2213 12.168 28.2427C11.0324 28.264 10.0254 25.9722 10.0254 23.1368C10.0254 20.3014 10.861 17.9777 11.9966 17.9564C13.1322 17.9351 14.0964 20.2162 14.1392 23.0622Z" fill="#1A1A1A"/>
<path d="M11.9954 17.9569L9.40283 17.9996L9.5421 28.4138L12.1775 28.2432L11.9954 17.9569Z" fill="#1A1A1A"/>
<path d="M11.5892 23.1694C11.5892 26.0475 10.7215 28.3925 9.54305 28.4138C8.36461 28.4352 7.40044 26.1221 7.30402 23.2441C7.2076 20.366 8.17178 18.021 9.36093 17.9997C10.5501 17.9783 11.5357 20.2914 11.5892 23.1694Z" fill="#1A1A1A"/>
<path d="M10.883 23.1794C10.883 25.3859 10.2509 27.1767 9.38316 27.198C8.5154 27.2193 7.7762 25.4392 7.73335 23.2327C7.6905 21.0262 8.37614 19.2355 9.24389 19.2248C10.1116 19.2142 10.8508 20.9836 10.883 23.1794Z" fill="#F0F1F7"/>
<path d="M10.6675 23.18C10.6675 25.1626 10.0997 26.7829 9.33912 26.7935C8.57849 26.8042 7.925 25.2159 7.89286 23.2333C7.86072 21.2507 8.44994 19.6304 9.21056 19.6198C9.97119 19.6091 10.6247 21.208 10.6675 23.18Z" fill="#F0F1F7"/>
<path d="M9.01868 19.3527L9.3615 22.5932L7.90452 21.442L7.80811 22.1348L9.31865 23.3393L8.16163 25.5671L8.35447 26.1641L9.55434 23.883L10.09 26.6544L10.3364 26.1427L9.83288 23.3287L10.8185 22.5079L10.7221 21.6978L9.75789 22.5292L9.42578 19.2994L9.01868 19.3527Z" fill="#F0F1F7"/>
<path d="M9.99346 23.2012C9.99346 23.8301 9.81126 24.3524 9.56475 24.3524C9.31824 24.3524 9.09317 23.8514 9.08246 23.2119C9.07174 22.5723 9.26465 22.05 9.52188 22.05C9.7791 22.05 9.98274 22.5617 9.99346 23.2012Z" fill="#A6B2C5"/>
<path d="M9.92969 23.2009C9.92969 23.4994 9.84394 23.7445 9.72605 23.7552C9.60815 23.7658 9.50098 23.51 9.50098 23.2009C9.50098 22.8918 9.58672 22.6466 9.6939 22.6466C9.80107 22.6466 9.92969 22.8918 9.92969 23.2009Z" fill="#F0F1F7"/>
<path d="M59.1887 30.7152C61.0044 30.666 62.4004 27.8497 62.3067 24.4247C62.2129 20.9997 60.665 18.2631 58.8492 18.3123C57.0335 18.3615 55.6375 21.1779 55.7313 24.6029C55.825 28.0278 57.373 30.7644 59.1887 30.7152Z" fill="#1A1A1A"/>
<path d="M58.9082 18.3087L54.7729 18.2661L54.9122 30.8334L59.1224 30.7162L58.9082 18.3087Z" fill="#1A1A1A"/>
<path d="M58.2232 24.5871C58.2875 28.0514 56.7983 30.8548 54.9128 30.8335C53.0273 30.8121 51.4739 27.9768 51.3882 24.5231C51.3025 21.0695 52.8131 18.2554 54.6986 18.2661C56.5841 18.2767 58.1696 21.1121 58.2232 24.5871Z" fill="#1A1A1A"/>
<path d="M57.1086 24.5763C57.1086 27.2305 56.0373 29.373 54.666 29.3624C53.2947 29.3517 52.1056 27.2305 52.0627 24.523C52.0199 21.8156 53.134 19.7263 54.5053 19.737C55.8766 19.7476 57.055 21.9115 57.1086 24.5763Z" fill="#1A1A1A"/>
<path d="M56.7452 24.5654C56.7452 26.9637 55.8346 28.8931 54.6026 28.8824C53.3706 28.8717 52.3528 26.9211 52.31 24.5334C52.2671 22.1457 53.2313 20.2057 54.4526 20.2164C55.6739 20.227 56.713 22.1777 56.7452 24.5654Z" fill="#1A1A1A"/>
<path d="M54.1412 19.8863L54.6554 23.809L52.3521 22.37L52.1914 23.2014L54.5911 24.715L52.7271 27.3585L53.027 28.094L54.9661 25.3652L55.8017 28.7336L56.2088 28.1367L55.416 24.715L57.0016 23.7557L56.8516 22.775L55.3089 23.7557L54.8054 19.8437L54.1412 19.8863Z" fill="#1A1A1A"/>
<path d="M55.6854 24.5551C55.6854 25.3333 55.3853 25.9515 54.978 25.9408C54.5708 25.9302 54.2385 25.3119 54.2278 24.5445C54.2171 23.777 54.5279 23.1588 54.9352 23.1588C55.3424 23.1588 55.6747 23.7877 55.6854 24.5551Z" fill="#A6B2C5"/>
<path d="M55.5775 24.5551C55.5775 24.9282 55.4382 25.216 55.2453 25.216C55.0524 25.216 54.8916 24.9175 54.8809 24.5551C54.8702 24.1927 55.0309 23.8942 55.2238 23.8942C55.4168 23.8942 55.5775 24.1927 55.5775 24.5551Z" fill="#F0F1F7"/>
<path d="M7.28201 22.4337V21.2292C7.28201 21.2292 7.67839 17.4345 9.18893 17.1787C11.053 16.8589 11.7279 19.1613 12.0279 20.8988C12.3279 22.6362 12.7028 25.0986 13.6563 25.2371C15.5204 25.4823 17.6415 25.7275 19.602 25.9087H20.2127C22.3553 26.0686 25.6442 26.4523 25.6442 26.4523C25.3733 25.9326 25.2128 25.3629 25.1728 24.7788C25.0871 23.6276 24.4229 17.0188 28.6546 16.5924C29.2083 16.5277 29.769 16.6201 30.2722 16.8589C32.3077 17.8395 33.0898 21.1226 33.4862 22.6256C33.9254 24.5549 34.5575 26.4843 35.1467 26.8254C35.7359 27.1665 38.9713 27.1451 41.5745 26.9533C44.1778 26.7614 60.5259 25.8873 62.1757 25.6315C63.8256 25.3757 65.3897 24.7894 65.8182 22.8494C66.2467 20.9094 66.8895 18.3085 66.3753 17.3705C65.861 16.4325 63.9327 9.04557 63.9327 9.04557L64.4362 7.90502C64.4362 7.90502 62.8292 6.90304 62.2936 6.50865C60.4938 5.25084 54.0874 2.96974 52.4911 2.18095C49.2772 0.603363 48.7309 0.304903 44.1778 0.18765C39.6174 0.0684109 35.0538 0.200076 30.5079 0.582045H30.1115C26.4607 1.05048 22.9692 2.35688 19.9127 4.39809C19.445 4.72158 19.0011 5.0778 18.5843 5.46403C16.3734 7.75518 14.319 10.1909 12.435 12.755C11.177 13.221 9.9907 13.8597 8.91039 14.6524C8.13113 15.2533 7.60113 16.1183 7.42128 17.0827C6.83495 18.8118 6.78642 20.6767 7.28201 22.4337Z" fill="#744A9D"/>
<path d="M12.9072 12.6587C12.9072 12.6587 26.9199 8.16042 29.9517 7.32899C32.9835 6.49756 33.7013 5.91129 32.4264 4.7814C29.8017 2.39371 28.3019 1.79678 25.3558 2.3937C22.8499 2.89475 20.5173 4.0332 18.5852 5.6981C16.5336 7.88533 14.6364 10.2111 12.9072 12.6587Z" fill="#6C8093"/>
<path d="M12.9072 12.6592L13.3358 12.5206L13.5929 12.446L19.3351 10.6019C23.4489 9.2908 28.3019 7.76651 29.9303 7.2975L30.6052 7.09497C33.0049 6.37014 33.5727 5.78387 32.4157 4.74992C32.1586 4.51541 31.9229 4.31288 31.6872 4.12101C31.2789 3.77059 30.8457 3.44997 30.3909 3.16167C29.8145 2.78705 29.1762 2.51643 28.5054 2.36222C28.0748 2.2555 27.6313 2.20886 27.1877 2.22365C26.5856 2.2425 25.9867 2.31744 25.3986 2.4475C23.4297 2.86637 21.5579 3.65113 19.8814 4.76058C19.4402 5.05599 19.0245 5.38759 18.6387 5.7519C16.726 7.75754 14.9575 9.8947 13.3465 12.1475L13.1643 12.414C12.9072 12.5632 12.9072 12.6592 12.9072 12.6592ZM14.1607 11.7638C14.4606 11.3587 14.8249 10.8684 15.232 10.3461C16.3668 8.84116 17.6054 7.41648 18.9387 6.08234C19.2016 5.82915 19.4847 5.59745 19.785 5.38948C21.4857 4.16785 23.4287 3.32114 25.4843 2.90585C26.0402 2.77977 26.6071 2.70837 27.177 2.69266C28.3611 2.65747 29.5205 3.03445 30.4552 3.7586C30.8302 4.02508 31.2373 4.34486 31.6872 4.7286C31.8158 4.85651 31.955 4.97376 32.0943 5.09102C32.555 5.50673 32.5228 5.66662 32.5228 5.67728C32.5228 5.68794 32.4693 5.85849 31.9229 6.11432C31.5007 6.31434 31.0638 6.48182 30.6159 6.6153L29.8124 6.83915C28.2055 7.2975 23.4489 8.78981 19.3672 10.1009L14.1607 11.7638Z" fill="#0C2635"/>
<path d="M12.9072 12.6593C12.9072 12.6593 26.9199 8.16101 29.9517 7.32958C32.9835 6.49815 33.7013 5.91189 32.4264 4.782C28.8909 4.5978 25.3587 5.20236 22.0883 6.55145C15.157 9.24827 12.9072 12.6593 12.9072 12.6593Z" fill="#2E1D43"/>
<path d="M61.6514 8.90695C61.6514 8.90695 61.8014 9.84497 61.9942 11.1134C63.0655 11.2733 63.869 11.4226 64.5975 11.5931L63.9225 9.01354C63.9225 9.01354 63.3976 9.01355 62.112 8.92827L61.6514 8.90695Z" fill="#ED262E"/>
<path d="M41.2861 11.5289C38.6116 11.786 35.9678 12.2964 33.3906 13.0532C34.7833 11.1452 36.0475 9.51428 38.4579 9.22648C39.3578 9.10922 40.3005 9.02395 41.2433 8.95999L41.2861 11.5289Z" fill="#ED262E"/>
<path d="M50.1029 13.7461L58.8661 13.5968L58.3412 11.3584L49.6851 11.3477L50.1029 13.7461Z" fill="white"/>
<path d="M19.1413 23.105C21.7018 23.105 25.2049 23.5101 24.4979 23.8938C23.7908 24.2776 19.7306 24.2563 17.7701 24.2456C15.8096 24.2349 12.0922 24.0217 13.6027 23.7126C15.426 23.3395 17.2802 23.1361 19.1413 23.105Z" fill="#7E56A3"/>
<path d="M62.2626 6.47648C62.2626 6.47648 58.738 6.30593 53.96 6.21C48.6035 6.1034 43.6326 6.11406 40.033 6.21C36.9369 3.9289 33.1445 0.336689 30.4448 0.549876C30.4448 0.549876 37.3762 -0.0683667 41.2972 0.00624878C44.9503 0.0702049 47.2108 0.251414 48.4642 0.368667C51.9781 0.699107 55.9955 2.98021 62.2626 6.47648Z" fill="#6C8093"/>
<path opacity="0.1" d="M58.3402 11.3588L60.1615 10.8685C58.3401 10.6184 56.5043 10.4866 54.6657 10.4741C52.2202 10.4878 49.7774 10.6373 47.3486 10.9218L49.6841 11.3482L58.3402 11.3588Z" fill="#221F1F"/>
<path d="M35.0935 27.0595C34.6706 26.5991 34.385 26.0307 34.2686 25.4179C34.2686 25.4179 40.4821 25.1088 40.8035 24.7677C41.4827 24.0234 42.2447 23.3583 43.0747 22.7851C44.1148 22.3185 45.2442 22.0821 46.385 22.0922C47.8741 22.0069 62.8189 21.2501 64.1259 21.2821C65.4329 21.3141 65.1972 23.7657 65.2507 24.1814C65.3043 24.5971 63.8366 25.4712 62.5939 25.6737C59.08 26.2493 48.3348 26.8782 45.603 27.0381C42.8711 27.198 35.0935 27.0595 35.0935 27.0595Z" fill="#1A1A1A"/>
<path d="M12.907 24.4482C12.9054 24.466 12.9054 24.4838 12.907 24.5015C12.9394 24.6836 12.9896 24.8621 13.0569 25.0345C13.1147 25.2486 13.2169 25.4483 13.3569 25.6208C13.4533 25.7167 13.614 25.738 13.914 25.738C15.5385 25.7024 17.1635 25.7772 18.7777 25.9619L19.6348 26.0578C21.9274 26.3243 25.9555 26.8999 25.9555 26.8999V26.7187V26.4842C25.8046 26.4374 25.6779 26.3342 25.6019 26.1964C25.6019 26.1004 25.3448 25.2797 25.2913 25.1304C25.2913 25.1304 22.2487 25.1944 19.5705 25.0665C19.3134 25.0665 19.0455 25.0665 18.7991 25.0665C17.0851 24.9706 15.2853 24.8107 14.1497 24.7041L12.907 24.4482Z" fill="#1A1A1A"/>
<path opacity="0.1" d="M62.8514 17.104C62.755 16.0381 61.6515 8.90695 61.6515 8.90695C54.7949 8.57468 47.9254 8.60314 41.0718 8.99222C41.0718 8.99222 41.5217 15.9954 41.8431 17.2852C42.1645 18.575 43.9 18.3511 43.7714 19.6622C43.6308 21.2848 43.2444 22.8768 42.6251 24.3843C42.0846 25.0936 41.3912 25.6734 40.5958 26.0811C39.8005 26.4887 38.9235 26.7139 38.0292 26.7401C35.7045 26.7401 35.1367 26.7401 35.1367 26.7401L35.7045 27.0172C37.59 27.0172 43.3322 27.1238 45.6034 27.0172C48.3352 26.8573 59.0804 26.2284 62.5943 25.6528C62.9933 25.5901 63.3823 25.4754 63.7513 25.3117C64.9726 24.5762 65.0797 20.9094 65.0476 19.2785C65.0262 18.1273 62.9478 18.2232 62.8514 17.104Z" fill="#0E1B24"/>
<path d="M55.1812 9.46088C55.2295 9.60797 55.2186 9.76799 55.1506 9.90719C55.0826 10.0464 54.9629 10.1539 54.8168 10.207C54.6688 10.2212 54.5205 10.183 54.398 10.0992C54.2755 10.0153 54.1866 9.89129 54.1469 9.74877C54.1073 9.60625 54.1194 9.45439 54.1811 9.31987C54.2429 9.18534 54.3503 9.07675 54.4845 9.01318C54.6363 8.98429 54.7934 9.0147 54.9231 9.09809C55.0529 9.18148 55.1453 9.31143 55.1812 9.46088Z" fill="#0C2635"/>
<path d="M55.759 17.5091C62.3261 17.4132 64.6294 17.3812 66.0328 17.6264C67.8755 17.9462 60.987 18.4578 55.9518 18.5751C47.3814 18.7776 42.2284 18.9695 40.375 18.3726C38.3395 17.7117 50.0168 17.5838 55.759 17.5091Z" fill="#7E56A3"/>
<path d="M41.1679 7.77681C45.5602 7.5423 64.4152 7.87274 64.4152 7.87274L62.2726 6.47637C62.2726 6.47637 53.9914 6.1779 51.8488 6.1779C48.892 6.1779 39.9037 5.97538 37.4826 6.43373C35.8328 6.73219 26.9623 9.31175 24.0377 10.1325C21.3701 10.8787 14.1602 13.0212 10.2714 14.3963C9.38013 14.6437 8.5635 15.1049 7.89307 15.7394C7.89307 15.7394 10.3464 14.6095 11.107 15.1637C11.107 15.1637 24.5947 11.5289 29.4906 10.2391C34.3865 8.94934 36.5934 8.03263 41.1679 7.77681Z" fill="#7E56A3"/>
<path fill-rule="evenodd" clip-rule="evenodd" d="M28.5604 10.5381L26.1704 11.1777L26.2883 10.698L28.6676 10.0478L28.5604 10.5381Z" fill="#0C2635"/>
<path fill-rule="evenodd" clip-rule="evenodd" d="M28.537 10.4528L26.1479 11.103L26.2658 10.6127L28.6548 9.97314L28.537 10.4528Z" fill="#F0F1F7"/>
<path fill-rule="evenodd" clip-rule="evenodd" d="M18.9819 13.1067L16.8384 13.693L16.9456 13.224L19.0891 12.6483L18.9819 13.1067Z" fill="#0C2635"/>
<path fill-rule="evenodd" clip-rule="evenodd" d="M18.9716 13.0321L16.8174 13.6183L16.9246 13.1493L19.0788 12.5737L18.9716 13.0321Z" fill="#F0F1F7"/>
<path d="M13.4112 10.6018C13.445 10.5377 13.4626 10.4663 13.4626 10.3939C13.4626 10.3215 13.445 10.2502 13.4112 10.1861C13.3669 10.1259 13.3088 10.0771 13.2417 10.0437C13.1746 10.0103 13.1005 9.99335 13.0255 9.9942C12.1224 9.98188 11.2227 10.1077 10.358 10.3673C10.0152 10.6124 9.28668 11.2413 9.79019 11.6251C10.6089 11.9539 11.4715 12.1621 12.3506 12.2433L13.1005 13.0321C13.1005 13.0321 13.5398 13.1281 13.6683 12.755C13.7969 12.3819 13.047 11.7423 13.047 11.7423L13.4112 10.6018Z" fill="#CBCBCA"/>
<path opacity="0.1" d="M13.3038 10.5593C13.33 10.51 13.3438 10.4551 13.3438 10.3994C13.3438 10.3436 13.33 10.2887 13.3038 10.2395C13.2728 10.1924 13.2295 10.1546 13.1785 10.1301C13.1275 10.1057 13.0708 10.0956 13.0145 10.1009C12.1384 10.0619 11.262 10.17 10.4219 10.4207C10.0791 10.6658 9.35064 11.2415 9.85416 11.6252C10.6443 11.9504 11.478 12.1587 12.3289 12.2434L13.0788 13.0322C13.0788 13.0322 13.518 13.1282 13.6466 12.7551C13.3368 12.5379 13.0399 12.303 12.7574 12.0516L13.3038 10.5593Z" fill="#221F1F"/>
<path d="M12.5535 11.9872L13.1856 10.5055C13.2043 10.4712 13.2142 10.4327 13.2142 10.3936C13.2142 10.3545 13.2043 10.316 13.1856 10.2817C13.1629 10.2488 13.1325 10.2219 13.0971 10.2033C13.0616 10.1847 13.0221 10.175 12.982 10.1751C12.0936 10.1436 11.2071 10.2774 10.368 10.5695C9.82166 10.9745 9.51098 11.4862 10.368 11.6354C11.2251 11.7847 12.5535 11.9872 12.5535 11.9872Z" fill="#0C2635"/>
<path d="M62.2627 6.47669C62.2627 6.47669 58.7381 6.30614 53.9601 6.21021C48.6035 6.10361 43.6327 6.11427 40.0331 6.21021C36.5085 3.38548 33.0589 1.08306 30.4771 0.55009C33.7874 0.262287 51.9996 0.752619 62.2627 6.47669Z" fill="#2E1D43"/>
</svg>
