<svg width="76" height="45" viewBox="0 0 76 45" fill="none" xmlns="http://www.w3.org/2000/svg">
<path d="M50.8498 25.5746H50.2778C50.1867 25.5746 50.1128 25.6485 50.1128 25.7396V27.0596C50.1128 27.1507 50.1867 27.2246 50.2778 27.2246H50.8498C50.9409 27.2246 51.0148 27.1507 51.0148 27.0596V25.7396C51.0148 25.6485 50.9409 25.5746 50.8498 25.5746Z" fill="white"/>
<path d="M60.3317 25.5746H59.7597C59.6686 25.5746 59.5947 25.6485 59.5947 25.7396V27.0596C59.5947 27.1507 59.6686 27.2246 59.7597 27.2246H60.3317C60.4228 27.2246 60.4967 27.1507 60.4967 27.0596V25.7396C60.4967 25.6485 60.4228 25.5746 60.3317 25.5746Z" fill="white"/>
<path d="M58.4069 25.5746H57.8349C57.7438 25.5746 57.6699 25.6485 57.6699 25.7396V27.0596C57.6699 27.1507 57.7438 27.2246 57.8349 27.2246H58.4069C58.498 27.2246 58.5719 27.1507 58.5719 27.0596V25.7396C58.5719 25.6485 58.498 25.5746 58.4069 25.5746Z" fill="white"/>
<path d="M56.009 25.5746H55.437C55.3458 25.5746 55.272 25.6485 55.272 25.7396V27.0596C55.272 27.1507 55.3458 27.2246 55.437 27.2246H56.009C56.1001 27.2246 56.174 27.1507 56.174 27.0596V25.7396C56.174 25.6485 56.1001 25.5746 56.009 25.5746Z" fill="white"/>
<path d="M56.009 29.4031H55.437C55.3458 29.4031 55.272 29.4769 55.272 29.5681V30.8881C55.272 30.9792 55.3458 31.0531 55.437 31.0531H56.009C56.1001 31.0531 56.174 30.9792 56.174 30.8881V29.5681C56.174 29.4769 56.1001 29.4031 56.009 29.4031Z" fill="white"/>
<path d="M17.27 34.98C26.808 34.98 34.54 27.248 34.54 17.71C34.54 8.17205 26.808 0.440002 17.27 0.440002C7.73204 0.440002 0 8.17205 0 17.71C0 27.248 7.73204 34.98 17.27 34.98Z" fill="#614289"/>
<path d="M31.6438 20.4795C33.1729 12.5394 27.9756 4.86313 20.0355 3.33411C12.0954 1.80508 4.41915 7.0023 2.89013 14.9424C1.3611 22.8825 6.55832 30.5588 14.4984 32.0878C22.4386 33.6168 30.1148 28.4196 31.6438 20.4795Z" fill="white"/>
<path opacity="0.4" d="M12.6943 9.77876C12.6716 9.77917 12.6493 9.7732 12.6298 9.76153C12.6104 9.74986 12.5946 9.73296 12.5843 9.71276L11.2753 7.44676C11.2537 7.42256 11.2417 7.39123 11.2417 7.35876C11.2417 7.32629 11.2537 7.29496 11.2753 7.27076C11.2876 7.25845 11.3021 7.24869 11.3182 7.24203C11.3342 7.23536 11.3514 7.23193 11.3688 7.23193C11.3862 7.23193 11.4034 7.23536 11.4194 7.24203C11.4355 7.24869 11.45 7.25845 11.4623 7.27076L12.7713 9.53676C12.7938 9.56274 12.8061 9.59592 12.8061 9.63026C12.8061 9.66459 12.7938 9.69778 12.7713 9.72376L12.6943 9.77876Z" fill="#7E56A4"/>
<path opacity="0.4" d="M9.28416 13.1447H9.21816L6.95216 11.8357C6.93253 11.8106 6.92188 11.7796 6.92188 11.7477C6.92188 11.7158 6.93253 11.6849 6.95216 11.6597C6.96851 11.6294 6.99608 11.6067 7.02897 11.5964C7.06185 11.5861 7.09745 11.5891 7.12816 11.6047L9.39416 12.8917C9.41661 12.9177 9.42896 12.9509 9.42896 12.9852C9.42896 13.0196 9.41661 13.0528 9.39416 13.0787C9.38165 13.097 9.36534 13.1123 9.34636 13.1237C9.32737 13.1351 9.30616 13.1423 9.28416 13.1447Z" fill="#7E56A4"/>
<path opacity="0.4" d="M7.00741 23.6501C6.98292 23.6527 6.95821 23.6478 6.93659 23.636C6.91497 23.6242 6.89746 23.6061 6.8864 23.5841C6.87079 23.5534 6.8678 23.5178 6.87808 23.4849C6.88836 23.452 6.91108 23.4245 6.9414 23.4081L9.20741 22.0991C9.21872 22.0871 9.23236 22.0776 9.24749 22.071C9.26262 22.0645 9.27893 22.0612 9.2954 22.0612C9.31188 22.0612 9.32819 22.0645 9.34332 22.071C9.35845 22.0776 9.3721 22.0871 9.38341 22.0991C9.40505 22.1233 9.41702 22.1546 9.41702 22.1871C9.41702 22.2196 9.40505 22.2509 9.38341 22.2751L7.1174 23.5841L7.00741 23.6501Z" fill="#7E56A4"/>
<path opacity="0.4" d="M11.3188 27.9838H11.2528C11.2408 27.9725 11.2313 27.9589 11.2247 27.9437C11.2182 27.9286 11.2148 27.9123 11.2148 27.8958C11.2148 27.8793 11.2182 27.863 11.2247 27.8479C11.2313 27.8328 11.2408 27.8191 11.2528 27.8078L12.5618 25.5418C12.5731 25.5169 12.5919 25.4961 12.6155 25.4823C12.6392 25.4685 12.6665 25.4624 12.6938 25.4648C12.712 25.4769 12.7268 25.4932 12.7371 25.5124C12.7474 25.5316 12.7528 25.553 12.7528 25.5748C12.7528 25.5966 12.7474 25.618 12.7371 25.6372C12.7268 25.6564 12.712 25.6728 12.6938 25.6848L11.4398 27.8848C11.4303 27.9106 11.4141 27.9334 11.3928 27.9508C11.3715 27.9682 11.346 27.9796 11.3188 27.9838Z" fill="#7E56A4"/>
<path opacity="0.4" d="M23.133 28.0059C23.1103 28.0064 23.088 28.0004 23.0685 27.9887C23.0491 27.9771 23.0333 27.9602 23.023 27.9399L21.714 25.6849C21.6916 25.659 21.6792 25.6258 21.6792 25.5914C21.6792 25.5571 21.6916 25.5239 21.714 25.4979C21.7447 25.4823 21.7803 25.4793 21.8132 25.4896C21.8461 25.4999 21.8736 25.5226 21.89 25.5529L23.199 27.8189C23.2146 27.8497 23.2176 27.8853 23.2073 27.9181C23.197 27.951 23.1743 27.9786 23.144 27.9949L23.133 28.0059Z" fill="#7E56A4"/>
<path opacity="0.4" d="M27.4671 23.683C27.4568 23.6879 27.4456 23.6904 27.4342 23.6904C27.4227 23.6904 27.4115 23.6879 27.4012 23.683L25.1351 22.385C25.1146 22.3581 25.1035 22.3253 25.1035 22.2915C25.1035 22.2577 25.1146 22.2248 25.1351 22.198C25.1465 22.186 25.1601 22.1764 25.1752 22.1699C25.1904 22.1634 25.2067 22.16 25.2231 22.16C25.2396 22.16 25.2559 22.1634 25.2711 22.1699C25.2862 22.1764 25.2998 22.186 25.3112 22.198L27.5331 23.485C27.5635 23.5013 27.5862 23.5289 27.5965 23.5618C27.6068 23.5946 27.6038 23.6302 27.5882 23.661C27.5706 23.6727 27.5508 23.6808 27.5299 23.6846C27.5091 23.6883 27.4877 23.6878 27.4671 23.683Z" fill="#7E56A4"/>
<path opacity="0.4" d="M25.2226 13.1782C25.1999 13.1787 25.1775 13.1727 25.1581 13.161C25.1386 13.1493 25.1229 13.1324 25.1126 13.1122C25.1002 13.1 25.0905 13.0854 25.0838 13.0694C25.0772 13.0533 25.0737 13.0361 25.0737 13.0187C25.0737 13.0014 25.0772 12.9842 25.0838 12.9681C25.0905 12.9521 25.1002 12.9375 25.1126 12.9252L27.3785 11.6162C27.4109 11.6001 27.4482 11.5967 27.4829 11.6069C27.5176 11.6172 27.5471 11.6401 27.5655 11.6712C27.5872 11.6954 27.5992 11.7268 27.5992 11.7592C27.5992 11.7917 27.5872 11.823 27.5655 11.8472L25.2996 13.1562L25.2226 13.1782Z" fill="#7E56A4"/>
<path opacity="0.4" d="M21.8673 9.80083H21.8013C21.7709 9.78448 21.7482 9.75691 21.7379 9.72403C21.7277 9.69114 21.7307 9.65554 21.7463 9.62483L23.0553 7.35883C23.0675 7.34653 23.0821 7.33676 23.0981 7.3301C23.1142 7.32344 23.1314 7.32001 23.1488 7.32001C23.1661 7.32001 23.1833 7.32344 23.1994 7.3301C23.2154 7.33676 23.23 7.34653 23.2423 7.35883C23.2639 7.38303 23.2759 7.41436 23.2759 7.44683C23.2759 7.4793 23.2639 7.51063 23.2423 7.53483L21.9773 9.73483C21.967 9.75504 21.9512 9.77194 21.9317 9.78361C21.9123 9.79528 21.8899 9.80125 21.8673 9.80083Z" fill="#7E56A4"/>
<path opacity="0.4" d="M17.2694 8.68998C17.2347 8.68998 17.2004 8.68315 17.1683 8.66988C17.1363 8.65661 17.1072 8.63717 17.0827 8.61265C17.0582 8.58814 17.0387 8.55904 17.0255 8.52701C17.0122 8.49498 17.0054 8.46065 17.0054 8.42598V5.80798C17.0054 5.77331 17.0122 5.73898 17.0255 5.70695C17.0387 5.67492 17.0582 5.64581 17.0827 5.6213C17.1072 5.59678 17.1363 5.57734 17.1683 5.56407C17.2004 5.55081 17.2347 5.54398 17.2694 5.54398C17.3394 5.54398 17.4065 5.57179 17.4561 5.6213C17.5056 5.67081 17.5334 5.73796 17.5334 5.80798V8.42598C17.5334 8.49599 17.5056 8.56314 17.4561 8.61265C17.4065 8.66216 17.3394 8.68998 17.2694 8.68998Z" fill="#7E56A4"/>
<path opacity="0.4" d="M8.00798 17.9851H5.38998C5.31996 17.9851 5.25281 17.9572 5.2033 17.9077C5.15379 17.8582 5.12598 17.7911 5.12598 17.7211C5.12598 17.651 5.15379 17.5839 5.2033 17.5344C5.25281 17.4849 5.31996 17.4571 5.38998 17.4571H8.00798C8.078 17.4571 8.14515 17.4849 8.19466 17.5344C8.24416 17.5839 8.27198 17.651 8.27198 17.7211C8.27198 17.7911 8.24416 17.8582 8.19466 17.9077C8.14515 17.9572 8.078 17.9851 8.00798 17.9851Z" fill="#7E56A4"/>
<path opacity="0.4" d="M17.2696 29.8098C17.2345 29.8114 17.1995 29.8056 17.1668 29.7929C17.134 29.7802 17.1043 29.7608 17.0795 29.7359C17.0546 29.7111 17.0353 29.6814 17.0225 29.6486C17.0098 29.6159 17.0041 29.5809 17.0056 29.5458V26.9278C17.0056 26.8936 17.0125 26.8598 17.0259 26.8284C17.0393 26.7969 17.0589 26.7685 17.0836 26.7449C17.1082 26.7213 17.1374 26.7029 17.1694 26.6908C17.2014 26.6788 17.2355 26.6733 17.2696 26.6748C17.3038 26.6733 17.3378 26.6788 17.3698 26.6908C17.4018 26.7029 17.431 26.7213 17.4557 26.7449C17.4803 26.7685 17.5 26.7969 17.5134 26.8284C17.5268 26.8598 17.5337 26.8936 17.5336 26.9278V29.5458C17.5336 29.6158 17.5058 29.683 17.4563 29.7325C17.4068 29.782 17.3396 29.8098 17.2696 29.8098Z" fill="#7E56A4"/>
<path opacity="0.4" d="M29.1933 17.9851H26.5203C26.4503 17.9851 26.3832 17.9572 26.3337 17.9077C26.2842 17.8582 26.2563 17.7911 26.2563 17.7211C26.2563 17.651 26.2842 17.5839 26.3337 17.5344C26.3832 17.4849 26.4503 17.4571 26.5203 17.4571H29.1933C29.2634 17.4571 29.3305 17.4849 29.38 17.5344C29.4295 17.5839 29.4573 17.651 29.4573 17.7211C29.4573 17.7911 29.4295 17.8582 29.38 17.9077C29.3305 17.9572 29.2634 17.9851 29.1933 17.9851Z" fill="#7E56A4"/>
<path d="M24.5641 21.2845L17.7001 17.5665V5.55455C17.7015 5.49676 17.6916 5.43925 17.6708 5.38531C17.65 5.33136 17.6188 5.28204 17.579 5.24016C17.5392 5.19827 17.4915 5.16465 17.4386 5.14121C17.3858 5.11777 17.3288 5.10497 17.2711 5.10355C17.1534 5.10642 17.0415 5.1552 16.9592 5.23947C16.877 5.32374 16.831 5.43682 16.8311 5.55455V18.0835L24.2781 22.1095C24.3705 22.1204 24.464 22.1032 24.5465 22.06C24.6289 22.0168 24.6964 21.9497 24.74 21.8675C24.7841 21.7652 24.7906 21.6506 24.7584 21.544C24.7262 21.4373 24.6574 21.3454 24.5641 21.2845Z" fill="#2E1E44"/>
<path d="M17.2697 18.8318C17.9076 18.8318 18.4247 18.3146 18.4247 17.6768C18.4247 17.0389 17.9076 16.5218 17.2697 16.5218C16.6319 16.5218 16.1147 17.0389 16.1147 17.6768C16.1147 18.3146 16.6319 18.8318 17.2697 18.8318Z" fill="#2E1E44"/>
<path d="M17.8089 17.6768C17.8111 17.7865 17.7804 17.8943 17.7208 17.9864C17.6612 18.0785 17.5754 18.1507 17.4745 18.1937C17.3735 18.2367 17.2621 18.2485 17.1544 18.2276C17.0467 18.2068 16.9476 18.1542 16.8701 18.0766C16.7925 17.999 16.7399 17.9 16.719 17.7923C16.6982 17.6846 16.71 17.5731 16.753 17.4722C16.7959 17.3712 16.8681 17.2855 16.9602 17.2259C17.0524 17.1663 17.1602 17.1356 17.2699 17.1378C17.4128 17.1378 17.5499 17.1946 17.651 17.2956C17.7521 17.3967 17.8089 17.5338 17.8089 17.6768Z" fill="white"/>
<path d="M43.9999 42.5111C61.1207 42.5111 74.9998 42.3182 74.9998 42.0803C74.9998 41.8424 61.1207 41.6495 43.9999 41.6495C26.8791 41.6495 13 41.8424 13 42.0803C13 42.3182 26.8791 42.5111 43.9999 42.5111Z" fill="#E1E0E1"/>
<path fill-rule="evenodd" clip-rule="evenodd" d="M10.4243 37.5473V35.842C10.6523 36.0849 10.7777 36.4064 10.7743 36.7395C10.7614 37.0428 10.6367 37.3305 10.4243 37.5473Z" fill="#1A1A1A"/>
<path fill-rule="evenodd" clip-rule="evenodd" d="M60.3711 20.4135C61.7802 20.6379 64.4099 20.9341 65.3702 21.1136C66.1241 21.4188 65.6933 21.9393 65.7202 22.3881L62.7315 21.5444L60.3711 20.4135Z" fill="#744B9E"/>
<path fill-rule="evenodd" clip-rule="evenodd" d="M35.636 30.6539L69.149 30.4295L71.303 33.1849L71.1414 37.9506H70.2798L62.7856 39.0725H28.8599L35.636 30.6539Z" fill="#141414"/>
<path fill-rule="evenodd" clip-rule="evenodd" d="M48.9364 42.0974H46.6208C44.6552 42.0974 43.0308 39.6383 43.0308 36.6047C43.0308 33.5711 44.6283 31.1209 46.6208 31.1209H48.9364C51.0814 31.1209 51.1442 42.0974 48.9364 42.0974Z" fill="#141414"/>
<path fill-rule="evenodd" clip-rule="evenodd" d="M48.9362 42.0974C46.9797 42.0974 45.3462 39.6293 45.3462 36.6047C45.3462 33.5801 46.9527 31.1209 48.9362 31.1209C50.9197 31.1209 52.5262 33.5891 52.5262 36.6047C52.5262 39.6203 50.8928 42.0974 48.9362 42.0974Z" fill="#141414"/>
<path fill-rule="evenodd" clip-rule="evenodd" d="M20.3595 42.0974H18.0529C16.0874 42.0974 14.4629 39.6383 14.4629 36.6047C14.4629 33.5711 16.0605 31.1209 18.0529 31.1209H20.3595C22.5046 31.1209 22.5764 42.0974 20.3595 42.0974Z" fill="#141414"/>
<path fill-rule="evenodd" clip-rule="evenodd" d="M20.3605 42.0974C18.404 42.0974 16.7705 39.6293 16.7705 36.6047C16.7705 33.5801 18.3681 31.1209 20.3605 31.1209C22.353 31.1209 23.9506 33.5891 23.9506 36.6047C23.9506 39.6203 22.3261 42.0974 20.3605 42.0974Z" fill="#141414"/>
<path fill-rule="evenodd" clip-rule="evenodd" d="M66.9398 42.0974H64.6242C62.6587 42.0974 61.0342 39.6383 61.0342 36.6047C61.0342 33.5711 62.6317 31.1209 64.6242 31.1209H66.9398C69.0758 31.1209 69.1476 42.0974 66.9398 42.0974Z" fill="#141414"/>
<path fill-rule="evenodd" clip-rule="evenodd" d="M66.9401 42.0974C64.9746 42.0974 63.3501 39.6293 63.3501 36.6047C63.3501 33.5801 64.9477 31.1209 66.9401 31.1209C68.9326 31.1209 70.5302 33.5891 70.5302 36.6047C70.5302 39.6203 68.8967 42.0974 66.9401 42.0974Z" fill="#1A1A1A"/>
<path fill-rule="evenodd" clip-rule="evenodd" d="M66.9401 39.9245C65.7554 39.9245 64.7861 38.4347 64.7861 36.6038C64.7861 34.7729 65.7554 33.292 66.9401 33.292C68.1249 33.292 69.0852 34.7818 69.0852 36.6038C69.0852 38.4257 68.1159 39.9245 66.9401 39.9245Z" fill="#989798"/>
<path fill-rule="evenodd" clip-rule="evenodd" d="M66.563 37.368C66.2937 37.368 66.0693 37.0269 66.0693 36.6051C66.0693 36.1833 66.2937 35.8512 66.563 35.8512C66.8322 35.8512 67.0566 36.1922 67.0566 36.6051C67.0566 37.018 66.8412 37.368 66.563 37.368Z" fill="#676767"/>
<path fill-rule="evenodd" clip-rule="evenodd" d="M38.3089 42.0974H35.9934C34.0278 42.0974 32.4033 39.6383 32.4033 36.6047C32.4033 33.5711 34.0009 31.1209 35.9934 31.1209H38.3089C40.445 31.1209 40.5168 42.0974 38.3089 42.0974Z" fill="#141414"/>
<path fill-rule="evenodd" clip-rule="evenodd" d="M38.3102 42.0974C36.3447 42.0974 34.7202 39.6293 34.7202 36.6047C34.7202 33.5801 36.3178 31.1209 38.3102 31.1209C40.3027 31.1209 41.9003 33.5891 41.9003 36.6047C41.9003 39.6203 40.2668 42.0974 38.3102 42.0974Z" fill="#1A1A1A"/>
<path fill-rule="evenodd" clip-rule="evenodd" d="M38.3093 39.9245C37.1246 39.9245 36.1553 38.4347 36.1553 36.6038C36.1553 34.7729 37.1246 33.292 38.3093 33.292C39.494 33.292 40.4543 34.7818 40.4543 36.6486C40.4543 38.5155 39.494 39.9245 38.3093 39.9245Z" fill="#989798"/>
<path fill-rule="evenodd" clip-rule="evenodd" d="M37.9341 37.368C37.6648 37.368 37.4404 37.0269 37.4404 36.6051C37.4404 36.1833 37.6648 35.8512 37.9341 35.8512C38.2033 35.8512 38.4277 36.1922 38.4277 36.6051C38.4277 37.018 38.2123 37.368 37.9341 37.368Z" fill="#676767"/>
<path fill-rule="evenodd" clip-rule="evenodd" d="M22.8099 25.4574C26.7141 23.447 30.7439 21.0237 34.2262 20.0724C43.7878 18.2851 53.6334 18.7367 62.9913 21.3917L67.1647 25.3228L69.947 27.1178L69.8393 27.6473H69.2739C62.7939 27.6473 57.5434 32.3413 57.5434 38.1213C57.5256 38.4351 57.5256 38.7498 57.5434 39.0636H42.6807V35.8595C42.6807 33.167 40.6972 30.6899 38.247 30.6899C35.7968 30.6899 33.8134 33.1939 33.8134 35.8595V39.0726H9.99351L9.85889 38.4444L10.1371 38.0764C10.1421 38.0107 10.1421 37.9447 10.1371 37.8789C10.1352 37.8417 10.1456 37.8048 10.1667 37.774C10.1878 37.7432 10.2184 37.7201 10.2538 37.7084C10.4061 37.599 10.5281 37.4526 10.6082 37.283C10.6883 37.1134 10.7238 36.9262 10.7115 36.7391C10.726 36.5443 10.6868 36.3493 10.5982 36.1752C10.5096 36.0011 10.375 35.8547 10.2089 35.7518C10.1102 35.7518 10.0743 35.6441 10.0563 35.4736C9.89479 33.7414 9.75119 32.0631 11.0885 31.5156C11.1792 31.0563 11.327 30.61 11.5283 30.1873C13.1617 27.7281 18.834 26.4985 22.8099 25.4574Z" fill="#7E56A4"/>
<path fill-rule="evenodd" clip-rule="evenodd" d="M52.077 19.2998C56.0302 19.3917 59.9451 20.0972 63.6817 21.391C65.972 22.3583 68.0929 23.6854 69.9643 25.3221L70.7182 26.3901L71.14 26.058L72.0375 28.23C72.1452 29.1275 72.7555 29.6391 72.935 30.2404C73.5677 32.2371 73.5172 34.3877 72.7914 36.3524L73.0158 36.855C73.1235 37.0345 73.0158 37.2948 72.7555 37.3756L71.3105 37.8962L70.8797 36.2806C70.8797 33.5881 69.336 30.6712 66.8948 30.6712C64.4536 30.6712 62.9099 33.6061 62.9099 36.2806L62.5868 39.0539H42.6801L42.2313 36.2806C42.2313 33.5881 40.6966 30.6712 38.2464 30.6712C35.7962 30.6712 34.2614 33.6061 34.2614 36.2806L33.9383 39.0539H29.1905C28.0776 37.0704 26.6955 35.6255 27.6109 34.0817C28.2302 33.0406 28.32 32.7445 26.9468 32.924C23.1635 33.4309 19.3389 33.5572 15.5305 33.3009C12.7841 33.0137 11.761 32.0803 11.1147 31.5059L11.5904 30.1327C12.8926 30.9302 14.381 31.3727 15.9074 31.4161C20.2244 31.7123 24.8825 30.6443 28.9931 29.6211C34.1179 28.3287 34.6025 27.7723 39.4042 25.5554L46.0008 20.9422C47.0388 20.1809 48.2519 19.6932 49.528 19.5242C50.3717 19.392 51.2232 19.317 52.077 19.2998Z" fill="#744B9E"/>
<path fill-rule="evenodd" clip-rule="evenodd" d="M68.0268 23.8328C68.7089 24.3084 69.3461 24.82 69.9564 25.3406L70.7103 26.4086L71.1321 26.0765L71.6437 27.333L40.5182 28.3472C40.1861 28.3472 40.1951 27.9703 40.5182 27.9254L53.4961 25.9958L64.6252 25.5201L68.0268 23.8328Z" fill="#7E56A4"/>
<path fill-rule="evenodd" clip-rule="evenodd" d="M48.2627 20.7095C46.4673 21.8065 44.776 23.0652 43.2098 24.4701C43.0393 24.6082 42.9168 24.7967 42.8598 25.0086L42.7072 25.5022C42.6174 25.8343 42.7072 26.0138 43.0303 25.9959H63.8794L67.3168 24.9817C67.3605 24.9737 67.4013 24.9542 67.435 24.9253C67.4688 24.8964 67.4942 24.859 67.5088 24.8171C67.5234 24.7751 67.5266 24.73 67.5181 24.6864C67.5096 24.6428 67.4897 24.6022 67.4604 24.5688C63.8076 20.7813 51.5027 18.9325 48.2627 20.7095Z" fill="#141414"/>
<path fill-rule="evenodd" clip-rule="evenodd" d="M55.5411 20.0279C54.9457 19.9543 54.346 19.9213 53.7461 19.9292L53.8717 20.4587L54.7693 25.6643V26.0412H56.5643V25.6194V21.4909L55.6668 20.5933L55.5411 20.0279Z" fill="#744B9E"/>
<path fill-rule="evenodd" clip-rule="evenodd" d="M48.4344 20.9964C49.7515 20.5005 51.158 20.2865 52.563 20.3681C53.0117 20.3681 53.0207 20.3681 53.4605 20.422L53.5412 20.7271C53.7656 21.5528 53.9541 22.3965 54.1067 23.2402C54.2592 24.0838 54.358 24.8557 54.4208 25.6634H43.0225C43.0225 25.6634 43.0225 25.6096 43.0225 25.5916L43.1661 25.107C43.207 24.955 43.2949 24.8199 43.4174 24.721C44.9711 23.3351 46.6439 22.0887 48.4165 20.9964H48.4344ZM56.5658 25.6634C56.5018 24.7603 56.3879 23.8615 56.2248 22.9709C56.0902 22.1901 55.9107 21.4003 55.7132 20.6015C56.7184 20.7271 57.7147 20.8977 58.6929 21.1041C59.9506 21.3713 61.1914 21.713 62.4086 22.1273V22.2888L63.4856 25.6814L56.5658 25.6634ZM67.1116 24.6851C65.9258 23.653 64.5512 22.8605 63.0638 22.3516L64.087 25.5827L67.1116 24.6851Z" fill="#2E1E44"/>
<path fill-rule="evenodd" clip-rule="evenodd" d="M24.8648 30.8246C27.1834 29.6738 29.6814 28.9271 32.2513 28.6167C32.7539 28.5629 32.7898 29.0027 32.6013 29.2629C32.1017 30.0419 31.3924 30.664 30.555 31.058C28.5816 31.5737 26.5662 31.9131 24.5327 32.0721C24.057 32.1619 23.4737 31.4439 24.8648 30.8246Z" fill="white"/>
<path fill-rule="evenodd" clip-rule="evenodd" d="M22.4326 32.7272L15.9077 33.2118L13.1164 32.7541C12.6497 32.6823 12.551 31.3271 13.1164 31.3989L15.8808 31.7309L22.7377 31.3809C23.6173 31.336 23.2852 32.6643 22.4326 32.7272Z" fill="#141414"/>
<path fill-rule="evenodd" clip-rule="evenodd" d="M22.4338 32.7262L16.2859 33.184L13.6652 32.7532C13.2703 32.6903 13.1356 31.6223 13.4587 31.4338L15.9089 31.73H16.2949H16.4564L22.9903 31.3889C23.5467 31.5236 23.1967 32.6634 22.4338 32.7262Z" fill="#141414"/>
<path fill-rule="evenodd" clip-rule="evenodd" d="M22.8628 25.4223C26.5156 23.5375 30.2762 21.3117 33.588 20.2437C37.9446 19.9049 42.3184 19.8449 46.6826 20.0642C47.0147 20.0642 47.0775 20.3155 46.8262 20.486L39.7 25.3056C39.488 25.4539 39.231 25.5237 38.973 25.503L23.0692 25.4223H22.8628Z" fill="#141414"/>
<path fill-rule="evenodd" clip-rule="evenodd" d="M24.2359 25.0898L39.0179 25.1705C39.2111 25.183 39.4031 25.1326 39.5654 25.0269L46.4223 20.3868C42.1593 20.1864 37.8881 20.2494 33.6328 20.5753L32.7353 20.674C30.1829 21.7016 27.7031 22.9011 25.3129 24.2641L23.7603 25.0987H24.2629L24.2359 25.0898Z" fill="#2E1E44"/>
<path fill-rule="evenodd" clip-rule="evenodd" d="M12.4064 35.509H21.3814C23.5265 35.509 23.8406 37.8066 22.4136 37.8066H12.541C11.7422 37.8066 10.8985 35.509 12.4064 35.509Z" fill="#744B9E"/>
<path fill-rule="evenodd" clip-rule="evenodd" d="M69.8849 25.2877L69.5977 27.2801L72.0209 28.2494C71.9401 27.6212 72.1466 26.9929 71.7876 26.3647C71.2372 25.8743 70.5885 25.5072 69.8849 25.2877Z" fill="#D95056"/>
<path d="M16.5442 32.189H15.3415C15.2324 32.189 15.144 32.2774 15.144 32.3864C15.144 32.4955 15.2324 32.5839 15.3415 32.5839H16.5442C16.6532 32.5839 16.7416 32.4955 16.7416 32.3864C16.7416 32.2774 16.6532 32.189 16.5442 32.189Z" fill="#B3B3B3"/>
<path d="M30.1422 38.3822H10.0022C9.81382 38.3822 9.66113 38.5349 9.66113 38.7232V38.7322C9.66113 38.9206 9.81382 39.0733 10.0022 39.0733H30.1422C30.3306 39.0733 30.4833 38.9206 30.4833 38.7322V38.7232C30.4833 38.5349 30.3306 38.3822 30.1422 38.3822Z" fill="#7E56A4"/>
<path fill-rule="evenodd" clip-rule="evenodd" d="M11.1255 31.4259C11.2145 30.9681 11.3718 30.5264 11.5922 30.1155C11.655 30.2501 11.7627 30.3937 11.9422 30.7079C12.2474 31.2194 12.2474 31.9105 11.8794 31.9464C11.664 31.9644 11.2691 31.6233 11.1255 31.4259Z" fill="white"/>
<path fill-rule="evenodd" clip-rule="evenodd" d="M53.1533 27.2431C52.525 27.2431 52.0224 27.4855 52.0314 27.7368C52.0403 27.9881 52.5519 28.1855 53.1802 28.1676C53.8084 28.1496 54.2751 27.9252 54.2751 27.6739C54.2751 27.4226 53.7815 27.2252 53.1533 27.2431Z" fill="#1A1A1A"/>
<path fill-rule="evenodd" clip-rule="evenodd" d="M63.1343 27.2431C62.506 27.2431 62.0034 27.4855 62.0034 27.7368C62.0034 27.9881 62.5329 28.1855 63.1612 28.1676C63.7895 28.1496 64.2921 27.9252 64.2831 27.6739C64.2741 27.4226 63.7625 27.2252 63.1343 27.2431Z" fill="#1A1A1A"/>
</svg>
