<svg width="35" height="20" viewBox="0 0 35 20" fill="none" xmlns="http://www.w3.org/2000/svg">
<path d="M16.3867 14.881L16.3002 14.7492L16.1873 14.8594C15.6684 15.365 15.0775 15.7819 14.4314 16.0982C13.8116 16.4026 13.1535 16.6086 12.4737 16.7117V10.6877L17.0328 6.13978C17.3091 6.53514 17.5421 6.96166 17.727 7.40495L17.7847 7.54153L17.9144 7.46725L17.9384 7.45288C17.9528 7.44329 17.9697 7.4361 17.9841 7.42652C18.5125 7.13418 19.0962 6.94249 19.7208 6.85383L19.8865 6.82987L19.8241 6.67652C19.1635 5.02077 18.0345 3.60942 16.5572 2.59105C15.0439 1.55112 13.2736 1 11.4336 1C9.59355 1 7.84242 1.54393 6.33871 2.57668C4.86863 3.58307 3.73964 4.98243 3.07186 6.6238L3.0022 6.79633L3.18716 6.80351C3.86695 6.83466 4.50351 6.97604 5.08001 7.22764L5.19771 7.27796L5.25056 7.16054C5.4163 6.80351 5.61327 6.46086 5.83667 6.13738L10.3958 10.6853V16.7093C9.15877 16.52 7.99856 15.9928 7.03532 15.1781L6.93203 15.0919L6.84795 15.1973C6.47563 15.6645 6.01683 16.0503 5.48596 16.3427C5.44753 16.3642 5.4091 16.3858 5.35865 16.4097L5.19291 16.496L5.32983 16.623C7.00169 18.1565 9.16838 19 11.4336 19C13.814 19 16.0624 18.0799 17.7655 16.405L17.8832 16.2899L17.7439 16.2013C17.201 15.861 16.7446 15.4153 16.3867 14.8762V14.881ZM15.606 4.63978L11.436 8.79952L7.26351 4.63978C7.82801 4.20128 8.45255 3.85623 9.12274 3.61422C9.86258 3.34585 10.6409 3.21166 11.4336 3.21166C12.2262 3.21166 13.0045 3.34824 13.7444 3.61422C14.4146 3.85623 15.0391 4.20128 15.6036 4.63978H15.606Z" fill="#5F4299"/>
<path d="M2.13749 8.92406V8.00873H0.0812988V16.3043H2.22877V12.2763C2.22877 11.5119 2.42334 10.9225 2.81008 10.5247C3.19441 10.1269 3.74209 9.92566 4.4339 9.92566C4.5564 9.92566 4.69572 9.94004 4.84706 9.96879L5.00319 9.99754V7.92007H4.87108C3.64361 7.92007 2.72841 8.25793 2.13749 8.92406Z" fill="#5F4299"/>
<path d="M23.7708 4.88175H23.6387V8.80907C23.3624 8.55028 23.0454 8.34661 22.6874 8.20044C22.231 8.01354 21.7218 7.92009 21.1741 7.92009C20.3814 7.92009 19.6584 8.09741 19.0218 8.44725C18.3853 8.79948 17.8785 9.30028 17.5157 9.94245C17.1554 10.5822 16.9705 11.3274 16.9705 12.1589C16.9705 12.9904 17.153 13.738 17.5157 14.3825C17.8785 15.0271 18.3853 15.5327 19.0218 15.8849C19.656 16.2348 20.3814 16.4121 21.1741 16.4121C21.741 16.4121 22.2695 16.3115 22.7403 16.1174C23.1078 15.964 23.4345 15.7484 23.7131 15.4776V16.3091H25.7837V4.88175H23.7684H23.7708ZM23.6699 12.1589C23.6699 12.6357 23.569 13.0599 23.3696 13.4193C23.1703 13.7763 22.8988 14.0567 22.5601 14.2484C22.219 14.4425 21.8299 14.5407 21.4023 14.5407C20.9748 14.5407 20.5856 14.4425 20.2469 14.2484C19.9082 14.0567 19.6344 13.7763 19.4374 13.4193C19.238 13.0599 19.1371 12.6357 19.1371 12.1589C19.1371 11.6821 19.238 11.2579 19.4374 10.8985C19.6368 10.5415 19.9082 10.2611 20.2469 10.0695C20.588 9.87536 20.9772 9.77712 21.4023 9.77712C21.8275 9.77712 22.219 9.87536 22.5601 10.0695C22.8988 10.2611 23.1727 10.5415 23.3696 10.8985C23.569 11.2579 23.6699 11.6821 23.6699 12.1589Z" fill="#5F4299"/>
<path d="M34.3807 9.96639C34.0228 9.32182 33.5184 8.81384 32.8818 8.45681C32.2477 8.10218 31.5174 7.92007 30.7151 7.92007C29.9129 7.92007 29.161 8.10218 28.51 8.464C27.8591 8.82582 27.3402 9.3362 26.9751 9.98077C26.6076 10.6253 26.4226 11.3562 26.4226 12.1589C26.4226 12.9616 26.6148 13.7092 26.9919 14.3538C27.369 14.9983 27.9119 15.5087 28.6061 15.8705C29.2955 16.23 30.1026 16.4121 31.0034 16.4121C31.7096 16.4121 32.3558 16.2971 32.9227 16.0718C33.4944 15.8442 33.9724 15.5015 34.3471 15.0558L34.4192 14.9696L34.3447 14.8857L33.3334 13.7284L33.2398 13.6205L33.1413 13.7212C32.596 14.2747 31.8922 14.555 31.049 14.555C30.3885 14.555 29.8288 14.3897 29.3844 14.0614C28.988 13.7691 28.7262 13.3737 28.6013 12.8897H34.878L34.8876 12.7699C34.9092 12.5231 34.9188 12.3362 34.9188 12.202C34.9188 11.361 34.7387 10.6086 34.3832 9.964L34.3807 9.96639ZM32.8362 11.3801H28.5797C28.683 10.8913 28.9136 10.4912 29.2691 10.1892C29.6606 9.85617 30.1459 9.68604 30.7151 9.68604C31.2844 9.68604 31.7817 9.85617 32.166 10.194C32.5167 10.5007 32.7425 10.8985 32.8362 11.3801Z" fill="#5F4299"/>
</svg>
