<svg width="82" height="32" viewBox="0 0 82 32" fill="none" xmlns="http://www.w3.org/2000/svg">
<g clip-path="url(#clip0_2244_4557)">
<path d="M30.1884 27.2164C30.4585 28.5846 30.7502 30.0811 30.9987 30.8721C31.1068 31.2248 31.204 31.4386 31.2904 31.4493L31.9387 31.599C32.1764 31.599 32.4357 31.7059 32.6734 31.7379C32.9112 31.77 33.3001 31.7379 33.3542 31.6738L33.6567 31.0538C33.8404 30.6797 34.0997 30.1452 34.413 29.5359L34.5103 29.3435L34.6723 29.0336C34.964 28.435 35.2882 27.7615 35.6231 27.0988C36.0445 26.2651 36.4875 25.4313 36.9197 24.7579C37.249 24.2174 37.6608 23.7306 38.1406 23.3148C38.3409 23.1239 38.608 23.0166 38.8862 23.0155C38.3567 22.8552 37.7084 22.6842 36.9953 22.5132C35.9149 22.2673 34.8344 22.0108 33.6567 21.7756L32.3385 21.5191C31.258 21.3053 30.2748 21.1236 29.432 20.9632L27.001 20.5357C27.163 20.6639 27.3575 20.7922 27.552 20.9739C27.8769 21.2482 28.1542 21.5732 28.3732 21.9359C28.7429 22.5275 29.0438 23.1587 29.27 23.8172C29.5546 24.6218 29.7891 25.4428 29.9723 26.2757L30.1019 26.8316C30.1235 26.9599 30.156 27.0881 30.1884 27.2164Z" fill="#7E56A4"/>
<path d="M38.843 23.1866C38.843 21.0488 31.7767 20.3753 31.7767 20.3753L31.377 22.3101C33.7514 23.2192 36.3194 23.5207 38.843 23.1866Z" fill="#7E56A4"/>
<path d="M31.3771 22.3101L31.0962 23.6783C37.4926 25.6023 38.6595 24.5014 38.8216 23.3897C38.8263 23.3221 38.8263 23.2542 38.8216 23.1866C36.3051 23.517 33.7449 23.2156 31.3771 22.3101Z" fill="#744B9E"/>
<path d="M32.6408 22.2246C32.4896 23.1224 31.8737 23.7745 31.2686 23.6783C30.6636 23.5821 30.2854 22.7697 30.4367 21.8611C30.5879 20.9525 31.193 20.3112 31.8089 20.4074C32.4247 20.5036 32.7813 21.316 32.6408 22.2246Z" fill="#989798"/>
<path d="M31.2579 23.7103C30.6313 23.6035 30.2531 22.7804 30.4044 21.8611C30.5556 20.9418 31.1823 20.2791 31.809 20.3753C32.4357 20.4715 32.8246 21.3053 32.6734 22.2245C32.5221 23.1438 31.8846 23.8172 31.2579 23.7103ZM31.7982 20.4395C31.2147 20.3433 30.6097 20.9846 30.4692 21.8718C30.3287 22.759 30.6853 23.55 31.2688 23.6462C31.8522 23.7424 32.4573 23.1011 32.6085 22.2139C32.7598 21.3267 32.3924 20.5357 31.7982 20.4395Z" fill="#493B5C"/>
<path d="M32.6411 22.2246C32.533 22.8659 32.09 23.2935 31.647 23.2935C31.204 23.2935 30.9447 22.6308 31.0528 21.9894C31.1608 21.3481 31.6038 20.867 32.036 20.9205C32.4682 20.9739 32.7383 21.5725 32.6411 22.2246Z" fill="#141414"/>
<path d="M64.6338 26.9064H64.7959H65.012L65.5306 27.024L65.9736 27.0988H66.2761H66.5354L66.7083 26.9278C67.2161 26.4254 67.8644 25.8589 68.4587 25.271C69.0529 24.6831 69.4095 24.3731 69.7552 24.031C69.9281 23.86 70.0686 23.6997 70.1658 23.5821H69.6364L68.772 23.689C68.2534 23.7424 67.778 23.7959 67.6915 23.7959C67.6051 23.7959 66.7947 23.6783 66.1356 23.5821L65.3901 23.4752H65.066C65.066 23.6462 65.066 23.8173 65.066 23.9883C65.066 24.3303 65.0012 24.6831 64.9579 25.0572C64.9147 25.4313 64.8499 25.9979 64.7634 26.5537L64.6338 26.9064Z" fill="#7E56A4"/>
<path d="M6.42891 16.6769C6.60556 16.747 6.7859 16.8077 6.96914 16.8586L7.37972 16.9869L7.76869 17.1151L8.56824 17.3503C9.48664 17.6068 10.5347 17.8634 11.68 18.1092C14.0462 18.6116 16.7906 19.0819 19.5458 19.4988L20.313 19.6164C24.8942 20.2898 26.1043 21.2519 29.1296 21.8398L30.4154 22.0856C32.8788 22.5559 35.3747 22.9942 37.8706 23.379L39.3076 23.5928L41.1768 23.8173C42.3963 23.8016 43.6156 23.8552 44.8288 23.9776C45.6392 24.0738 46.6764 24.2021 48.0703 24.4159C49.4641 24.6296 50.5121 24.7793 51.6142 24.9182C53.7645 25.1832 55.9301 25.3082 58.097 25.2924H59.0586C61.7633 25.2451 64.4609 25.0022 67.1298 24.5655L67.6268 24.4907C68.5236 24.341 69.3879 24.1807 70.1875 23.9883C70.4684 23.9241 70.7277 23.8493 70.987 23.7745C71.2464 23.6997 71.43 23.6355 71.6353 23.5607C71.8406 23.4859 71.8622 23.3683 71.9162 23.1866C71.9762 22.9961 72.009 22.7982 72.0135 22.5987C72.0135 22.2994 72.0135 21.9894 72.0135 21.6794C71.8633 21.5986 71.7081 21.5272 71.5489 21.4656C71.2896 21.3694 70.9546 21.2519 70.5332 21.1343L69.7877 20.9098C69.053 20.7067 68.167 20.4715 67.1406 20.215C66.1141 19.9585 64.7959 19.6378 63.4237 19.3171L62.0624 19.0071L61.3925 18.8575L60.9819 18.7613L60.5713 18.9216L60.0419 19.1675C59.0262 19.6805 58.54 19.9585 58.1835 20.1509C57.1603 20.6228 56.0648 20.9226 54.942 21.0381C53.8771 21.2703 52.7911 21.3957 51.7006 21.4122C49.5397 21.4122 49.4425 20.8991 46.4171 20.6853C45.5636 20.6212 45.1098 20.6212 44.1806 20.4822C43.2718 20.348 42.3757 20.1406 41.501 19.8623C38.6572 19.0341 35.7291 18.5214 32.7708 18.3337C31.6903 18.2696 31.323 18.3337 30.2965 18.1947C28.8462 17.974 27.4206 17.6161 26.0394 17.1258C23.0946 16.2394 20.0751 15.6169 17.0175 15.2659C16.3476 15.1804 15.8506 15.1269 15.1591 15.0842C11.6584 14.8597 9.8756 15.3621 8.78433 14.2932C8.59364 14.0598 8.35402 13.8702 8.08203 13.7374C7.67145 13.5877 7.41213 13.7374 5.92108 13.9191C5.63503 13.9653 5.34635 13.9939 5.05671 14.0046C4.76498 14.0046 4.61371 14.0046 3.97624 14.0046C3.06864 14.0046 2.96059 14.0046 2.89577 14.058C2.65806 14.3359 3.05784 15.0414 3.18749 15.2552L3.436 15.3835L3.73853 15.5331L4.67854 15.9928L5.55372 16.3776L5.78062 16.4738L6.1912 16.6448L6.42891 16.6769Z" fill="#7E56A4"/>
<path d="M3.17672 15.2018C3.2591 15.0834 3.37066 14.9877 3.50086 14.9239C3.87678 14.7802 4.27562 14.7042 4.67857 14.6994H5.52134C9.02154 14.8533 12.5041 15.2786 15.9371 15.9714L17.212 16.2173C20.5075 16.8372 25.6505 17.7031 29.2269 18.3551C30.5559 18.6009 31.6687 18.8147 32.3926 18.9751C33.2894 19.1782 34.5536 19.4133 35.8718 19.6485C37.3736 19.9157 38.9943 20.1936 40.3881 20.4609C41.4686 20.6747 42.5491 20.8884 43.1974 21.0808L43.6404 21.2305C45.2504 21.6449 46.904 21.8709 48.5673 21.9039C50.2534 22.0039 51.9451 21.961 53.6239 21.7756C54.2037 21.711 54.7756 21.5892 55.331 21.4122C55.9793 21.177 56.5844 20.9205 57.1354 20.664C58.2159 20.1509 59.1667 19.595 59.9339 19.2209L60.5605 18.9323L60.9387 18.7827H60.8198L60.4849 18.7078H60.366L59.9663 18.6223L59.707 18.5689L59.3504 18.4727H59.1451L58.6373 18.3765L57.8702 18.2375L54.9637 17.7031L51.5062 17.0724L49.6262 16.6983L47.5841 16.2707L42.0629 15.2018L41.2849 14.9452L40.2045 14.7208L39.4589 14.5711L35.7637 13.8336L29.8103 12.6898L27.12 12.1767C24.6241 11.7171 22.3335 11.2361 20.2157 10.8406L17.8927 10.4237C15.0058 9.90199 12.0909 9.54509 9.16253 9.3548H8.57907H8.1685C7.71413 9.40764 7.2632 9.48615 6.81791 9.58996C5.81587 9.90499 4.84339 10.3056 3.91144 10.7871C3.15511 11.033 2.2151 10.9796 1.61004 11.2575C0.734856 11.6637 0.1406 12.0271 0.0217482 12.4547C0.0109798 12.5076 0.0109798 12.5621 0.0217482 12.615C0.0603934 12.8389 0.170143 13.0449 0.335082 13.2029C0.922204 13.7736 1.58787 14.2594 2.31235 14.6459C2.57166 14.8704 2.87419 15.0414 3.17672 15.2018Z" fill="#744B9E"/>
<path d="M18.7677 13.5877H19.3835C19.4478 13.5938 19.512 13.5748 19.5624 13.5349C19.6128 13.495 19.6455 13.4373 19.6537 13.3739C19.6801 13.1967 19.6801 13.0167 19.6537 12.8395C19.6916 12.6417 19.6916 12.4386 19.6537 12.2409C19.635 12.1884 19.5996 12.1434 19.5529 12.1125C19.5061 12.0817 19.4505 12.0667 19.3944 12.0698H19.2215C19.1209 12.0591 19.0195 12.0591 18.9189 12.0698C18.8405 12.0537 18.7596 12.0537 18.6812 12.0698C18.6242 12.0844 18.5738 12.1177 18.5385 12.1643C18.5031 12.211 18.4849 12.2681 18.4868 12.3264V13.1281C18.4543 13.2543 18.4543 13.3866 18.4868 13.5129C18.524 13.5469 18.569 13.5715 18.6179 13.5845C18.6668 13.5975 18.7182 13.5986 18.7677 13.5877Z" fill="#2E1E44"/>
<path d="M13.1924 12.8288H13.8083C13.8736 12.832 13.9378 12.8106 13.9879 12.769C14.038 12.7273 14.0703 12.6685 14.0784 12.6043C14.1052 12.4271 14.1052 12.247 14.0784 12.0698C14.1217 11.8726 14.1217 11.6685 14.0784 11.4712C14.0603 11.4206 14.0266 11.3768 13.982 11.3461C13.9374 11.3154 13.8842 11.2994 13.8299 11.3002H13.3437C13.2689 11.284 13.1915 11.284 13.1168 11.3002C13.0597 11.3147 13.0094 11.3481 12.974 11.3947C12.9387 11.4413 12.9204 11.4985 12.9223 11.5567V12.2729C12.8898 12.3992 12.8898 12.5315 12.9223 12.6577C12.9443 12.7101 12.982 12.7546 13.0303 12.7851C13.0786 12.8157 13.1351 12.8309 13.1924 12.8288Z" fill="#2E1E44"/>
<path d="M24.1915 14.5283H24.7858C24.8467 14.5319 24.9067 14.5131 24.9546 14.4757C25.0024 14.4382 25.0346 14.3847 25.0451 14.3253C25.0659 14.1548 25.0659 13.9826 25.0451 13.8122C25.083 13.618 25.083 13.4184 25.0451 13.2243C25.0268 13.1775 24.9938 13.1378 24.9511 13.1108C24.9083 13.0839 24.858 13.0712 24.8074 13.0746H24.3212H24.0943C24.0411 13.0907 23.9945 13.1232 23.9614 13.1675C23.9283 13.2118 23.9105 13.2654 23.9106 13.3205V14.0046C23.8781 14.1272 23.8781 14.2561 23.9106 14.3787C23.9377 14.4279 23.9787 14.4683 24.0286 14.4949C24.0784 14.5215 24.1351 14.5331 24.1915 14.5283Z" fill="#2E1E44"/>
<path d="M26.8281 14.9987H27.4116C27.4742 15.005 27.537 14.9875 27.5871 14.9498C27.6373 14.9121 27.6711 14.857 27.6817 14.7956C27.7034 14.6217 27.7034 14.4457 27.6817 14.2718C27.7193 14.0812 27.7193 13.8852 27.6817 13.6946C27.6648 13.644 27.631 13.6005 27.5858 13.5714C27.5407 13.5422 27.4868 13.5291 27.4332 13.5343H26.9794C26.9046 13.518 26.8272 13.518 26.7525 13.5343C26.6973 13.5469 26.6484 13.5786 26.6148 13.6236C26.5811 13.6687 26.5648 13.7242 26.5688 13.7801V14.4642C26.5363 14.5869 26.5363 14.7157 26.5688 14.8383C26.5928 14.8862 26.6297 14.9265 26.6755 14.9548C26.7213 14.9831 26.7741 14.9983 26.8281 14.9987Z" fill="#2E1E44"/>
<path d="M29.8859 15.6293H30.4801C30.541 15.6329 30.6011 15.6141 30.6489 15.5767C30.6967 15.5392 30.7289 15.4857 30.7394 15.4262C30.7603 15.2558 30.7603 15.0836 30.7394 14.9132C30.7773 14.719 30.7773 14.5194 30.7394 14.3253C30.7166 14.2786 30.6787 14.2407 30.6318 14.2175C30.5849 14.1943 30.5316 14.1871 30.4801 14.197H30.0155H29.7886C29.7334 14.2096 29.6846 14.2413 29.6509 14.2864C29.6172 14.3314 29.6009 14.3869 29.6049 14.4428V15.1269C29.5724 15.2496 29.5724 15.3784 29.6049 15.5011C29.6349 15.5464 29.6771 15.5824 29.7268 15.6051C29.7765 15.6278 29.8316 15.6362 29.8859 15.6293Z" fill="#2E1E44"/>
<path d="M32.8247 16.1638H33.419C33.4798 16.1673 33.5399 16.1486 33.5877 16.1111C33.6355 16.0737 33.6678 16.0201 33.6783 15.9607C33.6991 15.7903 33.6991 15.618 33.6783 15.4476C33.7109 15.253 33.7109 15.0544 33.6783 14.8597C33.6567 14.813 33.6215 14.7738 33.5772 14.7472C33.5329 14.7205 33.4816 14.7076 33.4298 14.7101H32.9652H32.7491C32.694 14.7266 32.6461 14.7608 32.6129 14.8072C32.5796 14.8537 32.5629 14.9097 32.5654 14.9666V15.64C32.5329 15.7627 32.5329 15.8915 32.5654 16.0141C32.5908 16.06 32.6284 16.0981 32.6741 16.1245C32.7198 16.1509 32.7718 16.1644 32.8247 16.1638Z" fill="#2E1E44"/>
<path d="M21.4257 14.0473H22.0416C22.1059 14.0534 22.17 14.0345 22.2204 13.9946C22.2709 13.9547 22.3036 13.8969 22.3117 13.8335C22.338 13.6563 22.338 13.4763 22.3117 13.2991C22.3496 13.0977 22.3496 12.8912 22.3117 12.6898C22.2913 12.6393 22.2551 12.5966 22.2085 12.5678C22.1619 12.539 22.1072 12.5256 22.0524 12.5295H21.577C21.4982 12.5184 21.4181 12.5184 21.3393 12.5295C21.2814 12.5461 21.2308 12.5815 21.1955 12.6299C21.1603 12.6784 21.1424 12.7371 21.1448 12.7967V13.5022C21.1119 13.6284 21.1119 13.7608 21.1448 13.887C21.1714 13.9373 21.212 13.9792 21.2617 14.0075C21.3115 14.0359 21.3684 14.0497 21.4257 14.0473Z" fill="#2E1E44"/>
<path d="M16.0126 13.1922H16.6284C16.6934 13.196 16.7577 13.1765 16.8093 13.1373C16.8609 13.098 16.8965 13.0416 16.9094 12.9784C16.9307 12.8009 16.9307 12.6215 16.9094 12.444C16.9472 12.2426 16.9472 12.036 16.9094 11.8347C16.8889 11.7842 16.8527 11.7415 16.8061 11.7127C16.7595 11.6838 16.7049 11.6704 16.65 11.6743H16.434C16.3332 11.669 16.2322 11.669 16.1314 11.6743C16.0563 11.6623 15.9797 11.6623 15.9045 11.6743C15.8466 11.691 15.796 11.7264 15.7607 11.7748C15.7255 11.8232 15.7076 11.8819 15.71 11.9416V12.6577C15.6728 12.7834 15.6728 12.9169 15.71 13.0425C15.7372 13.0966 15.7814 13.1405 15.836 13.1675C15.8906 13.1945 15.9526 13.2031 16.0126 13.1922Z" fill="#2E1E44"/>
<path d="M52.4567 19.8729H53.0726C53.1369 19.879 53.201 19.8601 53.2514 19.8202C53.3018 19.7803 53.3346 19.7225 53.3427 19.6592C53.3692 19.482 53.3692 19.3019 53.3427 19.1247C53.3807 18.9269 53.3807 18.7239 53.3427 18.5261C53.3241 18.4736 53.2887 18.4286 53.2419 18.3977C53.1952 18.3669 53.1395 18.3519 53.0834 18.3551H52.608C52.5296 18.3389 52.4487 18.3389 52.3703 18.3551C52.3142 18.3699 52.2651 18.4036 52.2316 18.4505C52.198 18.4974 52.1821 18.5544 52.1866 18.6116V19.3278C52.1494 19.4534 52.1494 19.587 52.1866 19.7126C52.2103 19.763 52.2487 19.8052 52.2968 19.8338C52.345 19.8623 52.4007 19.876 52.4567 19.8729Z" fill="#2E1E44"/>
<path d="M46.8384 19.114H47.4543C47.5196 19.1172 47.5838 19.0958 47.6339 19.0542C47.684 19.0126 47.7163 18.9538 47.7244 18.8895C47.7455 18.712 47.7455 18.5326 47.7244 18.3551C47.7624 18.1573 47.7624 17.9542 47.7244 17.7565C47.7095 17.7038 47.6766 17.658 47.6312 17.6268C47.5859 17.5956 47.531 17.581 47.4759 17.5855H47.303C47.1989 17.5746 47.0938 17.5746 46.9897 17.5855C46.9149 17.5692 46.8375 17.5692 46.7628 17.5855C46.7047 17.5981 46.6531 17.631 46.6174 17.678C46.5818 17.7251 46.5643 17.7833 46.5683 17.842V18.5582C46.5358 18.6844 46.5358 18.8167 46.5683 18.943C46.5936 18.9929 46.632 19.0352 46.6796 19.0653C46.7271 19.0954 46.782 19.1122 46.8384 19.114Z" fill="#2E1E44"/>
<path d="M57.8809 20.8136H58.4751C58.536 20.8171 58.5961 20.7984 58.6439 20.7609C58.6917 20.7235 58.7239 20.6699 58.7344 20.6105C58.7552 20.4401 58.7552 20.2678 58.7344 20.0974C58.7671 19.9028 58.7671 19.7041 58.7344 19.5095C58.7129 19.4628 58.6777 19.4236 58.6334 19.397C58.5891 19.3703 58.5377 19.3574 58.4859 19.3599H58.0213H57.8052C57.75 19.3725 57.7012 19.4042 57.6675 19.4492C57.6338 19.4943 57.6175 19.5498 57.6215 19.6057V20.2898C57.589 20.4125 57.589 20.5413 57.6215 20.6639C57.647 20.7098 57.6846 20.7479 57.7302 20.7743C57.7759 20.8007 57.828 20.8142 57.8809 20.8136Z" fill="#2E1E44"/>
<path d="M55.1149 20.3326H55.7308C55.795 20.3386 55.8592 20.3197 55.9096 20.2798C55.96 20.2399 55.9927 20.1822 56.0009 20.1188C56.0272 19.9416 56.0272 19.7615 56.0009 19.5843C56.0387 19.383 56.0387 19.1764 56.0009 18.9751C55.9804 18.9246 55.9442 18.8819 55.8976 18.853C55.851 18.8242 55.7964 18.8108 55.7416 18.8147H55.2662C55.1873 18.8036 55.1073 18.8036 55.0284 18.8147C54.9715 18.8317 54.9222 18.8675 54.8887 18.9161C54.8553 18.9648 54.8398 19.0233 54.8448 19.0819V19.7874C54.8063 19.9129 54.8063 20.0468 54.8448 20.1722C54.8672 20.2236 54.9053 20.2666 54.9538 20.2954C55.0022 20.3242 55.0586 20.3372 55.1149 20.3326Z" fill="#2E1E44"/>
<path d="M49.7126 19.4775H50.3177C50.3832 19.4837 50.4486 19.4651 50.5008 19.4255C50.553 19.3858 50.5879 19.3279 50.5986 19.2637C50.6199 19.0861 50.6199 18.9067 50.5986 18.7292C50.6364 18.5278 50.6364 18.3213 50.5986 18.1199C50.5781 18.0695 50.542 18.0267 50.4953 17.9979C50.4487 17.9691 50.3941 17.9557 50.3393 17.9596H50.1772C50.0728 17.9542 49.9682 17.9542 49.8639 17.9596C49.7887 17.9476 49.7121 17.9476 49.637 17.9596C49.578 17.9745 49.5262 18.0094 49.4907 18.0583C49.4551 18.1071 49.438 18.1668 49.4425 18.2268V18.943C49.4105 19.0693 49.4105 19.2015 49.4425 19.3278C49.4697 19.3745 49.5092 19.4131 49.5567 19.4394C49.6043 19.4657 49.6581 19.4789 49.7126 19.4775Z" fill="#2E1E44"/>
<path d="M5.08905 10.6054H6.08308C6.08308 10.5413 6.13711 10.4771 6.15872 10.4023C6.19023 10.3306 6.21203 10.2552 6.22355 10.1778C6.22355 10.1778 6.22355 10.1244 6.22355 10.0923H6.10469H5.8886H5.72653H5.56446L5.4348 10.1458H5.36997H5.30515L5.15388 10.2634C5.11877 10.2926 5.08624 10.3248 5.05664 10.3596L5.08905 10.6054Z" fill="#2E1E44"/>
<path d="M7.47668 10.071H6.50426V10.1244V10.2313C6.5 10.2739 6.5 10.3169 6.50426 10.3596C6.49935 10.4165 6.49935 10.4737 6.50426 10.5306C6.49923 10.566 6.49923 10.602 6.50426 10.6375C6.59781 10.6433 6.69163 10.6433 6.78518 10.6375L7.17415 10.5199L7.47668 10.413H7.59553V10.3596C7.60082 10.3313 7.60082 10.3023 7.59553 10.274V10.1458L7.47668 10.071Z" fill="#2E1E44"/>
<path d="M4.19238 10.7337H4.48411C4.5866 10.7208 4.6878 10.6993 4.78664 10.6696H4.9055C4.96409 10.6328 5.01843 10.5898 5.06756 10.5413L5.1432 10.4665L5.22964 10.3916H5.05676L4.9055 10.4451L4.60296 10.5733L4.33285 10.723H4.25721H4.19238V10.7337Z" fill="#2E1E44"/>
<path d="M61.3491 18.9323L61.7165 19.0178L63.1103 19.3278C64.2556 19.5843 65.4009 19.8836 66.557 20.1509C67.7131 20.4181 68.7179 20.6533 69.6904 20.9205L70.7708 21.1663L71.0301 21.2305C71.0301 21.1236 71.1166 20.8563 71.149 20.7388C71.2138 20.4502 71.2786 20.1509 71.3435 19.8195C71.5488 18.9002 71.7649 17.842 71.9701 16.7945C72.1754 15.7469 72.3699 14.7635 72.5428 13.887L72.8561 12.3264C72.9632 11.9468 73.0213 11.5553 73.029 11.1613L72.7913 11.1078L72.035 10.9047L71.3975 10.7337L70.6196 10.5413L70.371 10.4878C69.8967 10.7521 69.4667 11.0874 69.0961 11.4819L67.6159 12.8501C66.7947 13.6198 65.8763 14.507 64.9687 15.3942L62.3648 17.9382L61.6084 18.6864L61.3491 18.9323Z" fill="#744B9E"/>
<path d="M29.4858 18.0344L34.9962 18.7506L41.5871 19.6271L42.5163 19.7447C42.793 19.4211 43.0888 19.1142 43.4023 18.8254C44.5818 17.75 45.8267 16.7469 47.1299 15.8217C48.2752 14.988 49.6042 14.0901 51.0736 13.1494L51.5815 12.8288L56.8217 9.62201L57.6969 9.08755L58.2804 8.72412L58.6153 8.52103L59.5661 7.93312L61.7271 6.61835C62.7427 5.98769 63.445 5.54944 63.6179 5.41048C63.9102 4.97909 64.1598 4.52092 64.3634 4.04226C64.6552 3.42229 64.9793 2.70611 65.2278 2.09683C65.3575 1.78684 65.4655 1.50893 65.5411 1.28445C65.6168 1.05998 65.7032 0.782061 65.66 0.749994C65.5732 0.689118 65.4734 0.64888 65.3683 0.632413C65.1702 0.576849 64.9678 0.537523 64.7632 0.514832C64.5687 0.514832 64.4175 0.514832 64.3742 0.589656C64.3352 0.659864 64.2919 0.727685 64.2446 0.792751C63.8664 1.3379 62.8076 2.79163 62.008 3.72159C61.7864 4.01292 61.5245 4.27199 61.2301 4.49121C61.1436 4.54465 60.5926 4.80119 59.685 5.19669L54.5852 7.39866L50.7279 9.05549L42.4083 12.6043L35.9254 15.3621L34.845 15.8217L34.0562 16.1531L32.5328 16.8051L31.0957 17.4144L29.8208 17.9489L29.4966 18.0878L29.4858 18.0344Z" fill="#744B9E"/>
<path d="M67.378 20.9098C67.3024 20.9098 67.3024 20.9953 67.378 21.0488C67.66 21.2605 67.9785 21.4198 68.318 21.5191L69.3013 21.8718C69.6038 21.9787 70.0036 22.107 70.3817 22.2139C70.7599 22.3208 70.976 22.3849 71.2137 22.4384C71.3808 22.476 71.5544 22.476 71.7215 22.4384L71.916 22.3208L72.4454 21.9894L73.6555 21.2412L75.2763 20.2791L78.0207 18.7078L79.9655 17.5534L81.2945 16.741L80.9163 16.6769L80.5273 16.6234H80.2788H80.1492L79.6089 16.5166L79.2524 16.4417C78.7013 16.6234 78.1071 16.8265 77.4912 17.051C76.7133 17.3289 75.8921 17.6389 75.0494 17.9596C73.9689 18.3765 72.8236 18.8147 71.7323 19.253L69.7767 20.0226L68.2964 20.6105L67.6373 20.867L67.378 20.9098Z" fill="#7E56A4"/>
<path d="M45.2499 15.1269C45.2499 12.615 36.9627 11.824 36.9627 11.824L36.4873 14.1008C39.2741 15.1679 42.2883 15.5209 45.2499 15.1269Z" fill="#744B9E"/>
<path d="M36.4877 14.1008L36.1636 15.7042C43.662 17.9596 44.9694 16.6662 45.2287 15.3621C45.2336 15.2838 45.2336 15.2053 45.2287 15.1269C42.2742 15.5172 39.2679 15.1643 36.4877 14.1008Z" fill="#7E56A4"/>
<path d="M37.9677 13.9939C37.784 15.0628 37.0709 15.8111 36.3578 15.6935C35.6446 15.5759 35.2016 14.6246 35.3853 13.5556C35.569 12.4867 36.2713 11.7385 36.9844 11.8561C37.6975 11.9736 38.1405 12.925 37.9677 13.9939Z" fill="#989798"/>
<path d="M36.3469 15.7362C35.6122 15.6187 35.1692 14.6673 35.342 13.5984C35.5149 12.5295 36.2604 11.7385 36.9952 11.8561C37.7299 11.9736 38.1837 12.925 38 13.9939C37.8163 15.0628 37.0816 15.8538 36.3469 15.7362ZM36.9627 11.8988C36.2712 11.7919 35.5689 12.5402 35.3961 13.577C35.2232 14.6139 35.6446 15.5438 36.3361 15.6614C37.0276 15.779 37.7299 15.0201 37.9028 13.9832C38.0756 12.9464 37.6759 12.0592 36.9627 11.8988Z" fill="#493B5C"/>
<path d="M37.9677 13.9939C37.8381 14.7528 37.3194 15.298 36.8008 15.2231C36.2822 15.1483 35.9797 14.4535 36.0985 13.6839C36.2174 12.9143 36.7468 12.3691 37.2654 12.4546C37.784 12.5402 38.0434 13.2243 37.9677 13.9939Z" fill="#141414"/>
<path d="M49.7126 12.0592C49.7126 9.92132 42.6571 9.23721 42.6571 9.23721L42.2573 11.1826C44.6285 12.09 47.1925 12.3914 49.7126 12.0592Z" fill="#744B9E"/>
<path d="M42.257 11.1826L41.9761 12.5508C48.3725 14.4749 49.5394 13.3739 49.7014 12.2516C49.7068 12.1875 49.7068 12.1232 49.7014 12.0591C47.1849 12.3896 44.6248 12.0882 42.257 11.1826Z" fill="#7E56A4"/>
<path d="M43.5104 11.0864C43.3699 11.995 42.7541 12.647 42.149 12.5402C41.544 12.4333 41.1658 11.6316 41.317 10.7337C41.4683 9.83579 42.0734 9.18375 42.6893 9.27995C43.3051 9.37616 43.6617 10.1885 43.5104 11.0864Z" fill="#989798"/>
<path d="M42.1383 12.5722C41.5116 12.476 41.1335 11.6423 41.2847 10.723C41.436 9.80371 42.0627 9.15167 42.6894 9.24787C43.316 9.34408 43.6942 10.1778 43.5429 11.0971C43.3917 12.0164 42.765 12.6791 42.1383 12.5722ZM42.6786 9.31201C42.0951 9.21581 41.49 9.85716 41.3496 10.7337C41.2091 11.6102 41.5657 12.4119 42.1491 12.5081C42.7326 12.6043 43.3376 11.9629 43.4781 11.0864C43.6186 10.2099 43.2728 9.40821 42.6786 9.31201Z" fill="#493B5C"/>
<path d="M43.5106 11.0864C43.4026 11.7385 42.9704 12.2088 42.5274 12.1553C42.0844 12.1019 41.8251 11.5033 41.9331 10.8513C42.0412 10.1992 42.4734 9.78235 42.9164 9.78235C43.3594 9.78235 43.6187 10.4451 43.5106 11.0864Z" fill="#141414"/>
</g>
<defs>
<clipPath id="clip0_2244_4557">
<rect width="81.2622" height="31.33" fill="white" transform="translate(0 0.440002)"/>
</clipPath>
</defs>
</svg>
